<svg id="Layer_1" data-name="Layer 1" xmlns="http://www.w3.org/2000/svg" viewBox="0 0 425.4 376.99"><defs><style>.cls-1{fill:#263238;}.cls-2{fill:#dbdbdb;}.cls-3{fill:#ebebeb;}.cls-4{fill:#c7c7c7;}.cls-5{fill:#a6a6a6;}.cls-6{fill:#f7a9a0;}.cls-7{fill:#f8180e;}.cls-8{fill:#455a64;}.cls-10,.cls-9{isolation:isolate;opacity:0.1;}.cls-10{fill:#030402;}.cls-11{fill:#ff9bbc;}.cls-12{fill:#fff;}.cls-13{fill:#37474f;}</style></defs><g id="freepik--Floor--inject-52"><polygon class="cls-1" points="0 270.3 53.2 270.1 106.3 270 212.7 269.8 319.1 270 372.2 270.1 425.4 270.3 372.2 270.6 319.1 270.6 212.7 270.8 106.3 270.6 53.2 270.6 0 270.3"/></g><g id="freepik--character-2--inject-52"><polygon class="cls-2" points="346.4 186.3 380.6 186.3 400.2 88.7 368.9 74.3 346.4 186.3"/><polygon class="cls-3" points="248.6 186.3 346.4 186.3 368.9 74.3 271 74.3 248.6 186.3"/><rect class="cls-2" x="364" y="133.9" width="52.4" height="107.5"/><polygon class="cls-2" points="223.4 241.5 237.7 241.5 259.1 134 223.4 134 223.4 241.5"/><rect class="cls-3" x="335.2" y="133.9" width="28.8" height="107.5"/><rect class="cls-3" x="194.6" y="133.9" width="28.8" height="107.5"/><rect class="cls-3" x="223.4" y="186.3" width="111.8" height="55.2"/><rect class="cls-3" x="223.4" y="162.4" width="111.8" height="24.1"/><path class="cls-2" d="M356.9,134l-10.9.2-10.9.1.3-.3.1,12.6v37.8c0,8.4,0,16.8-.1,25.2l-.3,25.2q-.3-12.6-.3-25.2c-.1-8.4-.1-16.8-.1-25.2V146.6l.1-12.6v-.3h.3l10.9.1Z"/><path class="cls-2" d="M223.4,134c.2,8.4.3,16.8.4,25.3l.1,25.3-.1,25.3-.1,12.5-.2,12.6-.3-12.6-.1-12.6-.1-25.3.1-25.3Q223.1,146.6,223.4,134Z"/><path class="cls-2" d="M223.4,186.3c9.3-.2,18.6-.3,28-.4l27.9-.1,28,.1,14,.1,14,.2-14,.2-14,.1-28,.1-27.9-.1C242,186.6,232.7,186.5,223.4,186.3Z"/><path class="cls-2" d="M223.4,162.4c9.3-.2,18.6-.3,28-.4l27.9-.1,28,.1,14,.1,14,.2-14,.2-14,.1-28,.1-27.9-.1C242,162.8,232.7,162.6,223.4,162.4Z"/><polygon class="cls-4" points="396.5 241.5 397.2 250.2 398.8 270.3 406.4 270.3 408.1 250.2 408.8 241.5 396.5 241.5"/><polygon class="cls-5" points="408.8 241.5 396.5 241.5 397.2 250.2 408.1 250.2 408.8 241.5"/><polygon class="cls-4" points="343.4 241.5 344.1 250.2 345.8 270.3 353.4 270.3 355 250.2 355.7 241.5 343.4 241.5"/><polygon class="cls-5" points="355.7 241.5 343.4 241.5 344.1 250.2 355 250.2 355.7 241.5"/><polygon class="cls-4" points="255.4 241.5 256.2 250.2 257.8 270.3 265.4 270.3 267.1 250.2 267.8 241.5 255.4 241.5"/><polygon class="cls-5" points="267.8 241.5 255.4 241.5 256.2 250.2 267.1 250.2 267.8 241.5"/><polygon class="cls-4" points="202.4 241.5 203.1 250.2 204.8 270.3 212.3 270.3 214 250.2 214.7 241.5 202.4 241.5"/><polygon class="cls-5" points="202.4 241.5 203.1 250.2 214 250.2 214.7 241.5 202.4 241.5"/><path class="cls-6" d="M154.7,258.6c2.2,1.3,69.9,15.4,72.8,14.4,1.1-.4,3.8-10.1,6.6-22,.6-2.6,1.2-5.2,1.9-7.9,4-17.5,7.9-36.1,7.9-36.1l-45.3-9.6L192,233.8l-1.5,8s-28.3,6.2-31.4,7.7S152.5,257.3,154.7,258.6Z"/><path class="cls-7" d="M154.5,258.6c2.2,1.3,70.3,15.5,73.2,14.4,1.4-.5,5-14.9,8.5-30.1l-44.3-9.4-1.5,8s-28.5,6.2-31.6,7.8S152.3,257.4,154.5,258.6Z"/><path class="cls-1" d="M156,256.1c11.5,2.1,57.5,11.7,68.7,14.6.1,0,.1.1,0,.1-11.4-1.8-57.4-11.8-68.8-14.5C155.7,256.3,155.8,256.1,156,256.1Z"/><path class="cls-1" d="M189.4,238.8c4.7.1,10,1.9,12.8,5.9.1.1-.1.3-.2.2a64.16,64.16,0,0,0-12.6-5.5c-.2,0-.3-.2-.2-.4C189.1,238.8,189.3,238.8,189.4,238.8Z"/><path class="cls-1" d="M185.8,240c4.7.1,10,1.9,12.8,5.9.1.1-.1.3-.2.2a64.16,64.16,0,0,0-12.6-5.5c-.2,0-.2-.2-.2-.4S185.6,240,185.8,240Z"/><path class="cls-1" d="M182.1,241.3c4.7.1,10,1.9,12.8,5.9.1.1-.1.3-.2.2a64.16,64.16,0,0,0-12.6-5.5c-.2,0-.3-.2-.2-.4C181.8,241.4,182,241.3,182.1,241.3Z"/><path class="cls-1" d="M178.5,242.6c4.7.1,10,1.9,12.8,5.9.1.1-.1.3-.2.2a64.16,64.16,0,0,0-12.6-5.5c-.2,0-.3-.2-.2-.4C178.2,242.7,178.3,242.6,178.5,242.6Z"/><path class="cls-1" d="M183.9,233.5c2.7,3.1,6.6,5,10,7.2a.78.78,0,0,0,.8-.2c0-.1,0-.1.1-.2s.1,0,.1-.1h0a23.76,23.76,0,0,0-4.8-11.7c-1.5-2-4.6-3.8-6.9-1.7S182.4,231.6,183.9,233.5Zm-.3-3.9c.2-5.1,5-1.4,6.1.1a19.23,19.23,0,0,1,1.8,3.1,57.86,57.86,0,0,1,2.9,6.8c-1.6-1.2-3.3-2.2-5-3.3C187.5,235,183.4,232.4,183.6,229.6Z"/><path class="cls-1" d="M211.3,236.4c-.5-3-4-3.5-6.4-3a25.17,25.17,0,0,0-11,6.2c-.1,0-.1.1,0,.2h0a.78.78,0,0,0,.2.8c.1,0,.1,0,.2.1,4,.4,8.3,1.4,12.3.6C208.9,240.8,211.8,239.2,211.3,236.4Zm-10.8,3.7c-2-.2-3.9-.4-5.9-.5,2.1-1.3,4.3-2.4,6.5-3.5a34.23,34.23,0,0,1,3.4-1.3c1.8-.5,7.8-.5,4.8,3.7-1.7,2.3-6.4,1.8-8.8,1.6Z"/><path class="cls-6" d="M217,295.9c2.5.7,71.5-2.9,74.1-4.7,1-.7,1.3-28.4.5-31.1-2.5-9-13.2-36.2-13.2-36.2l-46.2,2.2,14.6,36.2.6,8.1s-25.8,13.2-28.4,15.5S214.5,295.2,217,295.9Z"/><path class="cls-7" d="M216.8,296c2.5.7,71.9-2.9,74.5-4.7,1.2-.8,1-15.6.6-31.2l-45.2,2.2.6,8.1s-26,13.3-28.6,15.6S214.3,295.3,216.8,296Z"/><path class="cls-1" d="M217.6,293.2c11.6-.9,58.6-3.4,70.2-3.4.1,0,.1.1,0,.1-11.5,1.1-58.5,3.2-70.2,3.5C217.4,293.4,217.4,293.2,217.6,293.2Z"/><path class="cls-1" d="M245.5,267.9c4.5-1.1,10.2-.7,13.9,2.4.1.1,0,.3-.2.3a63.09,63.09,0,0,0-13.6-2.1c-.2,0-.3-.2-.2-.3C245.3,268,245.4,267.9,245.5,267.9Z"/><path class="cls-1" d="M242.3,270c4.5-1.1,10.2-.7,13.9,2.4.1.1,0,.3-.2.3a63.09,63.09,0,0,0-13.6-2.1.27.27,0,0,1-.3-.3C242,270.2,242.1,270.1,242.3,270Z"/><path class="cls-1" d="M239.1,272.2c4.5-1.1,10.2-.7,13.9,2.4.1.1,0,.3-.2.3a63.09,63.09,0,0,0-13.6-2.1c-.2,0-.3-.2-.2-.3C238.9,272.3,238.9,272.2,239.1,272.2Z"/><path class="cls-1" d="M235.8,274.4c4.5-1.1,10.2-.7,13.9,2.4.1.1,0,.3-.2.3a63.09,63.09,0,0,0-13.6-2.1.27.27,0,0,1-.3-.3C235.6,274.6,235.7,274.4,235.8,274.4Z"/><path class="cls-1" d="M238.8,264.1c3.4,2.4,7.6,3.2,11.5,4.4a.57.57,0,0,0,.7-.4v-.2c.1,0,.1-.1.1-.2a23.78,23.78,0,0,0-7.6-10.1c-2-1.5-5.4-2.5-7.1.1S236.9,262.8,238.8,264.1Zm-1.3-3.6c-1.1-5,4.5-2.6,5.9-1.5a30.7,30.7,0,0,1,2.6,2.5c1.6,1.9,3.1,3.8,4.6,5.8-1.9-.7-3.8-1.2-5.6-1.9C242.6,264.7,238.1,263.3,237.5,260.5Z"/><path class="cls-1" d="M266.1,260c-1.3-2.8-4.8-2.4-7-1.2a25.58,25.58,0,0,0-9.1,8.8v.2h0a.57.57,0,0,0,.4.7h.2c4-.6,8.3-.7,12-2.5C264.9,264.9,267.2,262.6,266.1,260Zm-9.5,6.3c-2,.3-3.9.6-5.9,1a50.78,50.78,0,0,1,5.4-5,30.63,30.63,0,0,1,2.9-2.1c1.6-.9,7.4-2.4,5.6,2.4C263.6,265.2,258.9,265.9,256.6,266.3Z"/><path class="cls-8" d="M323,156.6c-13.8,15.3-60,3.2-62.8,9.3-2.4,5.4,31.4,89.4,31.4,89.4l-49,4.5s-47.4-92.1-31.9-119.6c8.4-14.9,45.5-9,67.9-11.7,6.8-.8,9.9-14.8,9.9-14.8h40C328.6,113.7,338.7,139.1,323,156.6Z"/><path class="cls-1" d="M224.8,131.6l42.4,32.5c14.1-.3,44.9,4.6,55.7-7.5,15.8-17.5,5.6-42.9,5.6-42.9h-40s-3.2,13.9-9.9,14.8C263,130.4,240,128,224.8,131.6Z"/><path class="cls-1" d="M239.8,250.3c1.4-.4,14.5-1.9,17.4-2.2,5.8-.6,24-2.3,27.3-2.3.1,0,.1.1,0,.2-2.9.6-14.5,2-17.4,2.2-5.8.6-25.7,2.5-27.3,2.4-.1,0-.1,0-.1-.1A.35.35,0,0,1,239.8,250.3Z"/><path class="cls-1" d="M253.7,160.1c3.2-1.6,19.5-1,26.4-1.1l10.4-.2c3.1-.1,6.1-.1,9.2-.3,5.8-.4,11.5-1.8,15.9-5.5a27.18,27.18,0,0,0,7.9-12.9c1.7-6,1.5-12.3,1.2-18.5-.1-1.5-.2-3-.3-4.6,0-.1.1-.1.2,0,1.4,11.1,2.4,23.4-4.8,33a22.59,22.59,0,0,1-12.9,8.4c-5.9,1.5-12.2,1.3-18.2,1.5l-20.5.4c-3.4.1-12,.2-13.4,1.3-1.7,1.3,8,31.3,10.4,37.5,4.7,12.3,9.3,24.6,13.9,36.9.5,1.5,2.1,5.8,2.6,7.3.1.3-.4.5-.5.2-2.6-6-5.9-15-8.2-21.1s-4.8-12.2-7.1-18.3C260.9,191.6,250.8,161.5,253.7,160.1Z"/><path class="cls-1" d="M209,142.8c2.7-5.9,7.8-9.8,15.8-11.2.1,0,.1.2,0,.2-7,2-11.9,4.8-14.8,10.6a26,26,0,0,0-2.2,11.9c.4,11.7,4.5,28.6,6.9,36.7s5.2,16.1,8.3,24,10,24.4,10.5,25.4v.1h-.1c-3.2-5.4-13-29.2-18.6-46.6C212.1,185.6,203.2,155.5,209,142.8Z"/><path class="cls-8" d="M190.7,231.4l42.7,9.1s-34.6-91-20.4-102.6c3.9-3.2,12.5-4.4,22.7,0,15.2,6.6,32.8,19.9,49.4,24.8,15.5,4.6,34,.4,40.3-6.6,13.3-14.7,3.3-42.4,3.3-42.4l-47.5-2.1s1,2.1-1.6,4.4c0,0-40-8.8-54.1-.2C200.1,131.4,190.7,231.4,190.7,231.4Z"/><path class="cls-1" d="M304.8,116.9a.1.1,0,0,1,.2,0,32.42,32.42,0,0,0,.5,6.2,10.31,10.31,0,0,0,2.8,5.1c3,3,7.3,4.1,11.3,5.3.2.1.2.4-.1.4-4.4-.7-9-1.8-12.2-5.1a9.72,9.72,0,0,1-2.8-5.5A13.89,13.89,0,0,1,304.8,116.9Z"/><path class="cls-1" d="M213.9,136.1c5.9-3.7,15.1-.9,19.5.8.1,0,0,.2,0,.1-4-1.4-14.1-3.7-19.5.2C201.5,146,221,203.9,233.5,240c.2.5-.2.4-.5-.1-1.8-3.9-20.1-52.6-23.2-75.6C209.2,160,205.4,141.4,213.9,136.1Z"/><path class="cls-1" d="M195.9,222.6c1.2,0,11.1,2.2,13.3,2.6,4.4,1,18,4.3,20.4,5.2.1,0,0,.2,0,.1-2.3-.2-11.1-2.1-13.3-2.6-4.4-1-19.3-4.6-20.4-5.2C195.8,222.8,195.8,222.6,195.9,222.6Z"/><path class="cls-1" d="M215.8,134.5c4-2.2,8.7-2.5,13.1-2a46.37,46.37,0,0,1,13.4,4.2c9,4.1,17.5,9.1,26.4,13.2s18.4,7.2,28.2,7.5c8.4.3,19-1.2,24.4-8.8,8.3-11.6,3.5-31.7,3.4-33,0-.1.1-.1.1,0,6.5,24.6-1.9,34.2-7.5,38.2-4.5,3.2-10.8,4-15.1,4.4-9.8.8-19.5-1.6-28.6-5.2-9.3-3.7-18-8.7-26.9-13.2-8.5-4.4-18-8.9-27.8-6.4-1,.4-2,.7-3.1,1.1C215.8,134.7,215.7,134.6,215.8,134.5Z"/><path class="cls-1" d="M261.7,98.5l7.7-.3A23.46,23.46,0,0,0,271,83.9c-.2-1.1,2.8,5.1,2.3,14.1,8.1-.3,21.2-.9,30.9-1.4,0-3.8.1-7.3.1-7.3a42.48,42.48,0,0,0,2,7.2l3.9-.2a123.59,123.59,0,0,1-.2-16.1A52.51,52.51,0,0,0,315.7,96c6.1-.4,10.2-.7,9.9-1-9.9-10.1-3.5-16.6-6.7-25.8-3.8-11-13.6-12.2-13.8-20.7-.2-6.9.4-32.2-9.7-32.3,0,0-8.6-7.7-19.4-2.8-13.4,6.1-6.9,38.3-7.5,42.7-1,6.2-3.8,8.6-5.5,15.7s1.7,11.7,2.4,16.5S260.2,98.5,261.7,98.5Z"/><path class="cls-1" d="M325.8,93.6a22.28,22.28,0,0,1-3.3-5.8,12.69,12.69,0,0,1-.4-6.4,53.77,53.77,0,0,0,.7-6.9,18.36,18.36,0,0,0-1.1-7,17,17,0,0,0-4.1-5.9,57,57,0,0,0-5.5-4.2,26,26,0,0,1-5.1-4.2,11.49,11.49,0,0,1-2.8-6,11.8,11.8,0,0,0,2.2,6.5,22.78,22.78,0,0,0,5,4.8c1.8,1.3,3.5,2.7,5.2,4.2a15.8,15.8,0,0,1,3.5,5.3,17.18,17.18,0,0,1,1,6.4c0,2.2-.3,4.4-.4,6.7a20.45,20.45,0,0,0,0,3.5,9.59,9.59,0,0,0,1,3.4A16.59,16.59,0,0,0,325.8,93.6Z"/><path class="cls-1" d="M268.7,25.6a31.56,31.56,0,0,0-1.6,8c-.3,2.7.2,15.4.1,18.1l-.2,4a17.37,17.37,0,0,1-.5,3.9,19.81,19.81,0,0,1-3.6,6.9,33.54,33.54,0,0,0-2.1,3.6,19,19,0,0,0-1.4,4,30.06,30.06,0,0,0-.5,4.2,15,15,0,0,0,.4,4.2c.3,1.4.7,2.7,1.1,4a27,27,0,0,1,.8,3.9,7.8,7.8,0,0,1-3.2,6.9,8.52,8.52,0,0,0,4-6.9,18.41,18.41,0,0,0-.5-4.1c-.3-1.4-.7-2.6-.9-3.9a22.79,22.79,0,0,1,.4-7.8,19.11,19.11,0,0,1,1.3-3.6,23.94,23.94,0,0,1,2.1-3.4c.8-1.1,1.5-2.3,2.2-3.5a14.93,14.93,0,0,0,1.5-4,19.92,19.92,0,0,0,.4-4.2V51.8c0-2.7-.7-15.3-.7-18A42.9,42.9,0,0,1,268.7,25.6Z"/><path class="cls-6" d="M291.9,64.3c-4,16.1-13.5,41-22,40.9-7.7-.1-25-13.8-32.2-18.3s9-22.2,13.1-19.3c6.4,4.4,16,12.3,17.6,11.8,2-.6,4.6-5.6,16.1-20.3C289.3,53.2,293.6,57.5,291.9,64.3Z"/><path class="cls-6" d="M243.1,60.8c-3.4-1.2-7.2-2.8-11-2.8s-6.9,5.1-6.9,6.5,1.4,10.3,5.2,10.3,1.5-6.8,1.6-7.6.3-1.8,1-1.7,13.2,6,13.2,6Z"/><path class="cls-6" d="M242.9,61.3c-.2,0-10.3-4-14.1-3.9s-6.9,5.1-6.9,6.5,1.4,10.3,5.2,10.3,1.5-6.9,1.6-7.6.3-1.8,1-1.7,13.2,6,13.2,6V61.3Z"/><path class="cls-1" d="M228.3,73.8a4.56,4.56,0,0,0,.6-2.2,9.66,9.66,0,0,0-.1-2.4,16,16,0,0,1-.5-2.1,4.55,4.55,0,0,1,.5-2c.3-.5.9-.3,1.3-.2l2.1.9c.7.4,1.4.7,2.1,1.1s1.5.8,2.2,1.2v.1a11.08,11.08,0,0,1-1.9-.9l-2.2-1c-.7-.3-1.3-.6-2-.9-.2-.1-.7-.4-1-.3s-.4.8-.5,1a4.44,4.44,0,0,0,.1,2,15.52,15.52,0,0,1,.4,2.1,4.57,4.57,0,0,1-.2,2,5.07,5.07,0,0,1-.9,1.6Z"/><path class="cls-6" d="M254.8,71.3s-10.5-9.6-12.6-11.4c-4.4-3.8-22.8-11.3-25.4-11.6s-3.5,5,9,10.5c6.6,2.9,7.8,6.6,7.6,8.7s-2.1,6-5.6,5.9-5.8-5.2-9-5.8-1.1,5.4,1.2,8.8a21.62,21.62,0,0,0,9.5,7.4c3,1.1,12.5,5.2,12.5,5.2Z"/><path class="cls-1" d="M223.5,70.8c1.3,1,2.8,2.4,4.6,2.4a4.26,4.26,0,0,0,3.8-2.6,6.93,6.93,0,0,0,.9-4.9,7.59,7.59,0,0,0-2.4-3.9,17.51,17.51,0,0,0-4.8-3.2c-.1,0,0-.2.1-.1,1.6.7,6.6,2.8,7.7,7.2a6.84,6.84,0,0,1-1,5c-.8,1.4-1.9,2.8-3.6,2.9-2.1.2-3.9-1.5-5.4-2.8Z"/><path class="cls-7" d="M289.1,97.6,269.2,78.8S274.5,71,282,61.7c7.2-9,11.8-8.7,11.6,7.4A106.61,106.61,0,0,1,289.1,97.6Z"/><path class="cls-1" d="M272,75.8a58.68,58.68,0,0,1,4.6,4.1c1.5,1.4,2.9,2.6,4.3,3.9,2.9,2.8,5.8,5.6,8.6,8.5a.1.1,0,0,1-.1.1c-3-2.7-5.9-5.4-8.9-8.1-1.5-1.4-2.9-2.8-4.3-4.1s-3-2.8-4.4-4.3c.1,0,0-.1.2-.1Z"/><path class="cls-9" d="M293.5,69a101.51,101.51,0,0,1-4.4,28.5L269.5,78.9l20.7-23.2C292.4,56.5,293.6,60.6,293.5,69Z"/><path class="cls-7" d="M272.6,118.6l59.9,1s-15.8-48.8-28.2-61.8c-5.7-6-11.1-5-15.8-1.1-1.1,1-15.4,19.4-16.5,25.7-1,5.6,3.6,11.8,3.6,11.8Z"/><path class="cls-10" d="M302.2,55.9H289.5a14,14,0,0,1,1.6-1h9.5A8.64,8.64,0,0,1,302.2,55.9Zm3.1,3H286.6c-.3.3-.5.7-.8,1h20.4a8.12,8.12,0,0,1-.9-1Zm3,4.2H283.4a10.47,10.47,0,0,0-.8,1.1H309a3,3,0,0,0-.7-1.1Zm2.5,4.1H280.4l-.7,1.1h31.7Zm2.3,4.1H277.7a8.65,8.65,0,0,1-.7,1h36.7Zm2,4.1h-40c-.2.4-.4.7-.6,1.1h41.2c-.2-.4-.4-.7-.6-1.1Zm2,4.1H273a6.89,6.89,0,0,0-.4,1h45.1Zm1.8,4.2H271.8v1.1h47.5Zm1.8,4.1H272.4c.1.4.2.7.3,1h48.4Zm1.7,4.1H274.1a10.91,10.91,0,0,0,.6,1.1h48ZM324,96H275.3l-.1,1h49.2a5.13,5.13,0,0,1-.4-1Zm1.6,4.2H274.8l-.1,1H326c-.1-.3-.3-.7-.4-1Zm1.5,4.1H274.3l-.1,1h53.3a6.89,6.89,0,0,0-.4-1Zm1.5,4.1H273.8l-.1,1H329a6.89,6.89,0,0,0-.4-1Zm1.5,4.1H273.3l-.1,1h57.2c-.1-.3-.2-.6-.3-1Zm1.4,4.2H272.8l-.1,1h59.1c-.1-.3-.2-.6-.3-1Z"/><path class="cls-1" d="M284.2,91.7a51.93,51.93,0,0,1,7.9,1.2c1.3.4,2.6.8,3.8,1.2.6.2,1.3.4,1.9.6a11.8,11.8,0,0,0,2,.4c.1,0,.1.1,0,.1a6.05,6.05,0,0,1-1.9,0l-1.9-.3c-1.3-.3-2.6-.7-3.9-1.1-2.6-.7-5.3-1.4-8-1.9C284.1,92,284.1,91.7,284.2,91.7Z"/><path class="cls-1" d="M277.8,94.8a46.16,46.16,0,0,1,6.5-.7c1.1,0,2.2,0,3.3.1.5,0,1,.1,1.6.1a10.1,10.1,0,0,1,1.7.3c.1,0,.1.1,0,.1-.5,0-1.1.1-1.6.1h-1.6c-1.1,0-2.2.1-3.3.1-2.2,0-4.4,0-6.5.1C277.7,95.1,277.7,94.9,277.8,94.8Z"/><path class="cls-6" d="M297.5,55.4c0,1.1-3.7,8.8-8.5,9.5-1.6.2-3.2-8.2-3.2-8.2l-.3-.6-3.6-8.3,9-8.6,1.3-1.2s.9,2.3,1.9,5.3c0,.1.1.3.1.4l.2.5.5,1.3c.1.3.2.7.3,1l.4,1.1A49.35,49.35,0,0,1,297.5,55.4Z"/><path class="cls-1" d="M294.1,43.3a18.15,18.15,0,0,1-8.5,12.8L282,47.8l9-8.6,1.3-1.2S293.1,40.3,294.1,43.3Z"/><path class="cls-6" d="M268.2,37c3.1,15.7,12.9,15.6,16.2,14.9,3.1-.6,13.4-3.1,11.9-19s-9.8-19.4-16.9-18.4S265.1,21.3,268.2,37Z"/><path class="cls-1" d="M269.8,33.8c.3-.1.7-.3,1-.4a1.27,1.27,0,0,0,.9-.7.88.88,0,0,0-.1-.7,1.2,1.2,0,0,0-1.4,0,1.82,1.82,0,0,0-1.1,1,.63.63,0,0,0,.3.8C269.6,33.9,269.7,33.9,269.8,33.8Z"/><path class="cls-1" d="M280.5,31.4h-1.1a1.39,1.39,0,0,1-1.1-.2.48.48,0,0,1-.1-.7,1.37,1.37,0,0,1,1.3-.6,2.3,2.3,0,0,1,1.4.4.63.63,0,0,1,.1.9C280.8,31.3,280.7,31.4,280.5,31.4Z"/><path class="cls-1" d="M278.9,35.8a.1.1,0,0,1,.1.1c.2,1.1.6,2.3,1.6,2.4v.1C279.4,38.5,278.9,36.9,278.9,35.8Z"/><path class="cls-1" d="M279.7,34.5c1.7-.5,2.5,2.9.9,3.4S278.2,34.9,279.7,34.5Z"/><path class="cls-1" d="M280.4,34.5c.4.1.7.4,1.1.3s.6-.5.8-.9h.1a1.35,1.35,0,0,1-.6,1.7,1.29,1.29,0,0,1-1.5-.8C280.2,34.7,280.2,34.5,280.4,34.5Z"/><path class="cls-1" d="M273,37l-.1.1c.3,1.1.5,2.3-.4,2.9v.1C273.7,39.6,273.4,37.9,273,37Z"/><path class="cls-1" d="M271.8,36.1c-1.7.3-1,3.7.6,3.5S273.2,35.9,271.8,36.1Z"/><path class="cls-1" d="M271.1,36.5c-.2.2-.4.6-.8.7s-.7-.2-1-.5h0c.1.7.5,1.3,1.1,1.3s.9-.7.9-1.3C271.3,36.6,271.2,36.4,271.1,36.5Z"/><path class="cls-1" d="M281.1,44.5c-.2.3-.3.7-.7.9a4.87,4.87,0,0,1-1.2.1m0,0a1.6,1.6,0,0,0,1.5.2,1.08,1.08,0,0,0,.5-1.2.1.1,0,1,0-.2,0h0Z"/><path class="cls-1" d="M275.8,41.6a18.41,18.41,0,0,0,.3,2.4c0,.1.2.1.5,0h0a3.57,3.57,0,0,0,3.1-2.1.1.1,0,0,0-.1-.1h-.1a5.64,5.64,0,0,1-3,1.7c-.1-.2-.1-2.8-.3-2.8a4.81,4.81,0,0,0-1.6.8c-.4-3.4-.2-6.8-.7-10.2a.1.1,0,1,0-.2,0,50.45,50.45,0,0,0,.3,11C274.1,42.7,275.5,41.8,275.8,41.6Z"/><path class="cls-1" d="M276.6,43.7a4.9,4.9,0,0,0,2,1.1,1.67,1.67,0,0,0,1.2-.1c.8-.4.7-1.2.5-1.8a3.13,3.13,0,0,0-.5-1A6.83,6.83,0,0,1,276.6,43.7Z"/><path class="cls-11" d="M278.6,44.7a1.67,1.67,0,0,0,1.2-.1c.8-.4.7-1.2.5-1.8A2,2,0,0,0,278.6,44.7Z"/><path class="cls-1" d="M295.4,34.3c-1.7.2-7-3.8-8.4-12.1,0,0,1.8,7.3,2.6,8.3s-2.9-2.2-4.2-8.9a32.3,32.3,0,0,1-6.3,4.7c-3,1.4-4.9,1.7-5.2,1.5s4.1-2.4,5.2-4.1c0,0-7.8,5.3-11.6,6.2-.4.1-1-8.7,4.4-13.6s14-2.5,17-.5c0,0,3.1-.1,7,3.8S297.3,34.1,295.4,34.3Z"/><path class="cls-6" d="M297.5,38.6a1.61,1.61,0,0,1-.7.4,1.85,1.85,0,0,1-.7.2,1.7,1.7,0,0,1-1,0c-.3-.1-.5-.1-.7-.3a2.7,2.7,0,0,1-.8-.7l-.3-4.3s2-5.8,4.5-5.2S299.8,37,297.5,38.6Z"/><path class="cls-1" d="M297.6,30.9h0c-1.6,1.3-2,3.2-2.2,5.2a1.49,1.49,0,0,1,1.8-1.1c.1,0,.1,0,.2.1s0,.1,0,.1a1.71,1.71,0,0,0-1.6,1.1,8.47,8.47,0,0,0-.4,1.7c0,.2-.4.2-.3,0h0C294.4,35.6,295.2,31.8,297.6,30.9Z"/><path class="cls-12" d="M297.1,38.1a.75.75,0,1,1-.8-.7A.77.77,0,0,1,297.1,38.1Z"/><path class="cls-12" d="M298.3,36.6a.63.63,0,0,1-.5.6.54.54,0,0,1-.4-1h.3C298,36.1,298.2,36.3,298.3,36.6Z"/><path class="cls-6" d="M306.1,71.4c-2.8,16.4-12.8,48.1-21.8,51-10.4,3.3-48.5-8.8-55.5-13.9-2.8-2.1,12.2-20.8,15.8-19.6,13.6,4.6,28.4,8.1,29.5,7.6,3.1-1.6,13.1-19.4,20.8-29.9C304.5,53.3,307.4,64.1,306.1,71.4Z"/><path class="cls-6" d="M229.7,109c-1.6-.6-12.6-8.6-15.9-12.3a49.15,49.15,0,0,1-8.5-13.1c-3.3-7.6-4.8-13.2-4-15.7.9-2.9,1.2-3.4,8.8,9.3,4.3,7.2,8.4,8,12,7.9a53.92,53.92,0,0,1,25.3,5.7C247.5,90.6,235.9,111.2,229.7,109Z"/><path class="cls-13" d="M210.1,52.9l22,22.9a1.08,1.08,0,0,1,.2,1.4.55.55,0,0,1-.5.3l-13.2,5.9a2.15,2.15,0,0,1-2.4-.6l-22-22.9a1.08,1.08,0,0,1-.2-1.4.55.55,0,0,1,.5-.3l13.2-5.8A2.39,2.39,0,0,1,210.1,52.9Z"/><path class="cls-1" d="M208.5,52l-13.2,5.9a1,1,0,0,0-.6,1.3c.1.2.2.3.3.5l22,22.9a2.39,2.39,0,0,0,2.4.6l13.3-5.9a1,1,0,0,0,.6-1.3c-.1-.2-.2-.3-.3-.5L211,52.6A2.4,2.4,0,0,0,208.5,52Zm22.9,23.1c.6.6.5,1.3-.1,1.6l-11.9,5.2a1.86,1.86,0,0,1-2.2-.6L196.7,60.1c-1.2-1.2-.7-1.5,0-1.8l2.4-1c.2,0,.4,0,.5.2l.1.1a.56.56,0,0,0,.9.1h0l5.5-2.4c.3-.1.6-.2.2-.6l-.1-.1c-.1-.2-.2-.3,0-.4l2.4-1c.7-.3,1.4-.4,2.4.8Z"/><path class="cls-12" d="M203.6,55.6l-1.5.7h-.2v-.1h0l1.5-.7h.2v.1Z"/><path class="cls-12" d="M210.9,53.8l20.5,21.3c.6.6.5,1.3-.1,1.6l-11.9,5.2a1.86,1.86,0,0,1-2.2-.6L196.7,60.1c-1.2-1.2-.7-1.5,0-1.8l2.4-1c.2,0,.4,0,.5.2l.1.1a.56.56,0,0,0,.9.1h0l5.5-2.4c.3-.1.6-.2.2-.6l-.1-.1c-.2-.2-.2-.3,0-.4l2.4-1C209.1,52.7,209.8,52.7,210.9,53.8Z"/><path class="cls-7" d="M210.9,53.8l1.5,1.6-14.3,6.3-1.5-1.6c-1.2-1.2-.7-1.5,0-1.8l2.4-1c.2,0,.4,0,.5.2l.1.1a.56.56,0,0,0,.9.1h0l5.5-2.4c.3-.1.6-.2.2-.6l-.1-.1c-.2-.2-.2-.3,0-.4l2.4-1C209.1,52.7,209.8,52.7,210.9,53.8Z"/><polygon class="cls-12" points="198.9 60.3 198.1 60.1 198.3 59.6 198.4 59.6 198.3 60.1 198.9 60.2 198.9 60.3"/><path class="cls-12" d="M210.2,54.6v.1h-.1v-.1Z"/><path class="cls-12" d="M210.5,54.8h0a.1.1,0,0,1-.1.1v-.1h.1Z"/><path class="cls-12" d="M210.7,55.1h0v.1h-.1v-.1h.1Z"/><g id="freepik--u5Zjqx--inject-52"><path class="cls-12" d="M199.1,57.9h-.3c-.1,0-.1.1-.1.2h-.1V58l.1-.1h.4Z"/><path class="cls-12" d="M198.7,58.2h0c0-.1,0-.1.1-.1h.1C198.8,58,198.7,58.1,198.7,58.2Z"/><path class="cls-12" d="M199,58.1h-.1l-.1.1h-.1A.37.37,0,0,1,199,58.1Z"/></g><path class="cls-12" d="M196.9,59h0v-.1h.2V59h-.2Z"/><path class="cls-12" d="M197.2,58.8c-.1,0,0-.1,0-.1h.2v.1h0C197.3,58.9,197.2,58.9,197.2,58.8Z"/><path class="cls-12" d="M197.5,58.7v-.1h.2c.1,0,0,.1,0,.1Z"/><path class="cls-12" d="M197.8,58.6h0v-.1h.2v.1h-.2Z"/><path class="cls-12" d="M198.1,58.4c-.1,0-.1-.1,0,0v-.1h.2v.1h-.2Z"/><polygon class="cls-12" points="208.5 54.3 207.8 53.6 209.1 53.1 209.7 53.8 208.5 54.3"/><polygon class="cls-12" points="208.8 53.5 208.3 53.7 208.5 54 209 53.7 208.8 53.5"/><polygon class="cls-12" points="209.3 53.6 209.2 53.6 209.1 53.5 209.1 53.4 209.3 53.6"/><polygon class="cls-3" points="219.1 80.2 219 80.3 219.4 80.7 219.2 80.8 219 80.6 218.7 80.7 218.9 81 218.7 81 218.3 80.6 218.1 80.7 218.2 80 219.1 80.2"/><polygon class="cls-3" points="229.8 75.1 228.6 75.6 228.4 75.5 229.6 75 229.8 75.1"/><polygon class="cls-3" points="230.1 75.5 228.9 76 228.8 75.8 230 75.3 230.1 75.5"/><polygon class="cls-3" points="230.4 75.8 229.2 76.3 229.1 76.2 230.3 75.7 230.4 75.8"/><polygon class="cls-3" points="224.4 77.8 224.3 78.3 223.7 78.1 223.7 78 224.2 78.2 224.3 77.8 224.4 77.8"/><path class="cls-3" d="M224.3,79.1a2.1,2.1,0,0,1-1.1-.4,1.4,1.4,0,0,1-.3-.9,1.79,1.79,0,0,1,.5-.7,1.53,1.53,0,0,1,1.6.3,1.4,1.4,0,0,1,.3.9,1.79,1.79,0,0,1-.5.7A1.09,1.09,0,0,1,224.3,79.1ZM224,78a.37.37,0,0,0,.3.1c-.1,0-.2-.1-.3-.1Z"/><path class="cls-12" d="M203.1,58.1a.6.6,0,0,1-.1-.4l.1-.1h.3a.1.1,0,0,1,.1.1h-.3c-.1,0-.1.1-.1.2s0,.1.1.2.1.1.2.1h.2a.1.1,0,0,0,.1-.1h.1s.1,0,0,.1-.1.1-.2.2C203.5,58.3,203.2,58.3,203.1,58.1Z"/><path class="cls-12" d="M204.2,58l-.5-.5m0-.1h.1l.2.2.3-.1-.2-.2v-.1h.1l.5.5v.1h-.1l-.2-.2-.3.1.2.2V58h-.1Z"/><path class="cls-12" d="M205.1,57.5l-.2.1.1.1h-.1l-.3-.6h.1l.7.4s.1,0,0,.1h-.1Zm-.1-.1-.3-.2.1.2Z"/><path class="cls-12" d="M205.4,56.8l-.2.1.4.5v.1h-.1l-.4-.5-.2.1h-.1V57l.6-.2Z"/><polygon class="cls-8" points="208.3 69.9 218.5 65.4 215.9 62.7 205.7 67.2 205.7 67.2 208.3 69.9"/><polygon class="cls-8" points="219.5 65 218.5 65.4 217.7 64.6 219.5 65"/><polygon class="cls-12" points="215.8 63.5 206.8 67.5 206.8 67.4 215.8 63.4 215.8 63.5"/><polygon class="cls-12" points="214.2 64.6 207.1 67.8 207 67.7 214.2 64.5 214.2 64.6"/><polygon class="cls-12" points="215.9 64.6 207.6 68.3 207.6 68.3 215.8 64.6 215.9 64.6"/><polygon class="cls-12" points="216.9 64.6 207.9 68.6 207.8 68.5 216.8 64.5 216.9 64.6"/><polygon class="cls-12" points="217.2 64.8 208.1 68.8 208.1 68.8 217.1 64.8 217.2 64.8"/><polygon class="cls-12" points="214.9 66.2 208.4 69.1 208.3 69.1 214.9 66.2"/><polygon class="cls-8" points="214.4 76.2 224.6 71.7 222 69 211.8 73.6 211.8 73.6 214.4 76.2"/><polygon class="cls-8" points="225.6 71.3 224.6 71.7 223.8 70.9 225.6 71.3"/><polygon class="cls-12" points="221.9 69.8 212.9 73.8 212.9 73.8 221.9 69.8"/><polygon class="cls-12" points="220.3 70.9 213.2 74.1 213.1 74 220.3 70.9"/><polygon class="cls-12" points="222 71 213.7 74.6 213.7 74.6 221.9 70.9 222 71"/><polygon class="cls-12" points="223 70.9 214 74.9 213.9 74.9 222.9 70.9 223 70.9"/><polygon class="cls-12" points="223.3 71.2 214.2 75.2 214.2 75.1 223.2 71.1 223.3 71.2"/><polygon class="cls-12" points="221 72.6 214.5 75.5 214.5 75.4 221 72.5 221 72.6"/><polygon class="cls-7" points="214.3 59.6 204.1 64.1 201.9 61.9 212.1 57.3 214.3 59.6"/><polygon class="cls-7" points="203.2 64.5 204.1 64.1 203.3 63.3 203.2 64.5"/><polygon class="cls-12" points="210.5 58.7 203 62.1 202.9 62 210.4 58.7 210.5 58.7"/><polygon class="cls-12" points="212.3 58.3 203.2 62.3 203.2 62.3 212.2 58.3 212.3 58.3"/><polygon class="cls-12" points="212.5 58.6 203.5 62.6 203.5 62.6 212.5 58.6"/><polygon class="cls-12" points="212.1 59.2 203.8 62.9 203.7 62.8 212 59.2 212.1 59.2"/><polygon class="cls-12" points="213.1 59.2 204 63.2 204 63.1 213 59.1 213.1 59.2"/><polygon class="cls-12" points="211 60.5 204.3 63.5 204.3 63.4 210.9 60.4 211 60.5"/><polygon class="cls-7" points="216.3 61.7 206.1 66.2 204.5 64.5 214.6 60 216.3 61.7"/><polygon class="cls-7" points="205.1 66.6 206.1 66.2 205.3 65.4 205.1 66.6"/><polygon class="cls-12" points="214.5 60.7 205.5 64.7 205.5 64.6 214.5 60.7"/><polygon class="cls-12" points="213.2 61.7 205.8 65 205.7 64.9 213.1 61.6 213.2 61.7"/><polygon class="cls-12" points="214.2 61.6 206 65.3 206 65.2 214.1 61.6 214.2 61.6"/><polygon class="cls-12" points="212.6 62.7 206.3 65.5 206.3 65.5 212.6 62.7"/><polygon class="cls-2" points="222.4 68 212.2 72.5 209.9 70.1 220.1 65.6 222.4 68"/><polygon class="cls-2" points="211.2 72.9 212.2 72.5 211.4 71.7 211.2 72.9"/><polygon class="cls-12" points="220.2 67.4 211.7 71.2 211.7 71.1 220.2 67.3 220.2 67.4"/><polygon class="cls-12" points="219.8 68 212 71.4 211.9 71.4 219.8 67.9 219.8 68"/><polygon class="cls-12" points="219.2 67 211.2 70.6 211.1 70.6 219.2 67"/><polygon class="cls-12" points="219.8 66.4 210.9 70.3 210.9 70.3 219.8 66.3 219.8 66.4"/><polygon class="cls-12" points="220.4 68.1 212.3 71.7 212.2 71.7 220.3 68.1 220.4 68.1"/><polygon class="cls-7" points="228.1 74 217.9 78.5 216 76.5 226.2 72 228.1 74"/><polygon class="cls-7" points="217 78.9 217.9 78.5 217.1 77.7 217 78.9"/><polygon class="cls-12" points="226.1 72.7 217.1 76.7 217 76.7 226 72.6 226.1 72.7"/><polygon class="cls-12" points="226.3 73 217.3 77 217.3 76.9 226.3 72.9 226.3 73"/><polygon class="cls-12" points="225.9 73.6 217.6 77.3 217.5 77.2 225.8 73.5 225.9 73.6"/><polygon class="cls-12" points="226.9 73.5 217.9 77.5 217.8 77.5 226.8 73.5 226.9 73.5"/><polygon class="cls-12" points="224.8 74.8 218.1 77.8 218.1 77.8 224.7 74.8 224.8 74.8"/><path class="cls-6" d="M220.4,84.9c3.7.1-8.3-7.4-8.5-11.6s3.9-2.9,7.1-.5c11.2,8.2,19.6,7.8,25.3,15.7S220.4,84.9,220.4,84.9Z"/><path class="cls-1" d="M229.1,78.8c1.5.5,3.1,1.1,4.6,1.7a45.38,45.38,0,0,1,4.5,2.1,16.23,16.23,0,0,1,3.9,3,37,37,0,0,1,3.3,3.6l-.2-.1,7.6,2.2,7.6,2.1,7.6,2.1,3.9.9a4.08,4.08,0,0,0,1.9.1,5.85,5.85,0,0,0,1.7-1,6.1,6.1,0,0,1-1.6,1.2,4.52,4.52,0,0,1-2,.1c-1.3-.1-2.6-.4-3.9-.6-2.6-.5-5.2-1.1-7.7-1.8s-5.1-1.3-7.7-2-5.1-1.5-7.6-2.2h-.1l-.1-.1c-1-1.2-2.1-2.5-3.2-3.6a21.09,21.09,0,0,0-3.6-3.1,35.5,35.5,0,0,0-4.3-2.3C232.2,80.4,230.6,79.4,229.1,78.8Z"/><path class="cls-7" d="M303.4,101.1,283.5,82.3A190.06,190.06,0,0,1,295,64.7c7.1-9.6,13-8.2,12.8,7.9A101.51,101.51,0,0,1,303.4,101.1Z"/><path class="cls-1" d="M286.2,79.4a58.68,58.68,0,0,1,4.6,4.1c1.5,1.4,2.9,2.6,4.3,3.9,2.9,2.8,5.8,5.6,8.6,8.5,0,.1,0,.1-.1.1-3-2.6-6-5.3-8.9-8.1-1.5-1.4-2.9-2.8-4.3-4.1a44.17,44.17,0,0,1-4.2-4.4C286.1,79.4,286.2,79.3,286.2,79.4Z"/><path class="cls-1" d="M284.6,79.7c.5-.9,1-1.7,1.5-2.6l.3-.5a34.54,34.54,0,0,1,1.4-3.4h.1c-.3.9-.6,1.8-1,2.7.8-1.3,1.7-2.5,2.6-3.8m.2,0c-1,1.8-2,3.4-3.1,5.2-.5.8-3,4.9-3,4.9l.6.6c.1.2,0,.1-.1.1l-1-.7s1-1.8,1.5-2.5Z"/><path class="cls-1" d="M298.7,96.7l4.8,4.2-.4.1c1-3.5,1.8-7.1,2.5-10.8l2.1-10.8a48.7,48.7,0,0,1-.6,5.5c-.3,1.8-.5,3.7-.9,5.5s-.7,3.6-1.1,5.4a54.37,54.37,0,0,1-1.5,5.4l-.1.4-.3-.3C301.7,99.8,300.2,98.3,298.7,96.7Z"/><path class="cls-1" d="M308.2,82.2a12.91,12.91,0,0,1-.5,2.1,5.93,5.93,0,0,1-1.1,1.9,16.55,16.55,0,0,1,.6-2.1A11.4,11.4,0,0,1,308.2,82.2Z"/></g><g id="freepik--character-1--inject-52"><path class="cls-6" d="M386.3,374.6c-2.6,1-77.5,2.4-80.4.7-.3-.2-.2-3.5-1.3-12,0-.4-1.8-2-4.4-4.2-10-8.4-33.5-26.1-33.5-26.1l37.4-32.5,36.2,35.6,9.4,9.2s30.6,16.5,33.6,18.7S388.8,373.6,386.3,374.6Z"/><path class="cls-3" d="M386.3,374.6c-2.6,1-77.5,2.4-80.4.7-.3-.2-.2-3.5-1.3-12,0-.4-1.8-2-4.4-4.2-3.5-2.9-5.1-4.2-10.3-8.3l47.5-17.5,2.9,2.8,9.4,9.3s30.6,16.5,33.6,18.7S388.8,373.6,386.3,374.6Z"/><path class="cls-7" d="M391.4,375.6c-2.6.9-82.4,1.8-85.3,0-.7-.4-1.3-5-1.8-11.4-.1-.8-8.1-7.2-9.2-8.5L344,339.2l6.2,5.8s36,16.7,38.9,19S394,374.7,391.4,375.6Z"/><path class="cls-1" d="M390.3,372.6c-12.5-.2-68.1.4-80.5,1.2-.1,0-.1.1,0,.1,12.4.4,68-.5,80.6-1C390.6,372.8,390.6,372.6,390.3,372.6Z"/><path class="cls-1" d="M354.2,345.6c-4.9-.9-11,0-14.7,3.5-.1.1,0,.3.2.3a70.79,70.79,0,0,1,14.5-3.2.27.27,0,0,0,.3-.3A.32.32,0,0,0,354.2,345.6Z"/><path class="cls-1" d="M357.7,347.7c-4.9-.9-11,0-14.7,3.5-.1.1,0,.4.2.3a71.33,71.33,0,0,1,14.4-3.2.27.27,0,0,0,.3-.3C357.9,347.8,357.9,347.7,357.7,347.7Z"/><path class="cls-1" d="M361.3,349.8c-4.9-.9-11,0-14.7,3.5-.1.1,0,.3.2.3a70.79,70.79,0,0,1,14.5-3.2.3.3,0,0,0,0-.6Z"/><path class="cls-1" d="M364.9,351.9c-4.9-.9-11,0-14.7,3.5-.1.1,0,.3.2.3a70.79,70.79,0,0,1,14.5-3.2.3.3,0,0,0,0-.6Z"/><path class="cls-1" d="M363.1,334.1c-2-2.6-5.6-1.4-7.6.4a27.4,27.4,0,0,0-7.5,11.4c0,.1,0,.2.1.2h0c0,.4.4.8.8.6,4-1.6,8.6-2.7,12-5.5C363,339.5,365,336.6,363.1,334.1Zm-8.5,8.9c-2,.8-4,1.5-5.9,2.4a74.91,74.91,0,0,1,4.5-6.5,35.84,35.84,0,0,1,2.6-2.9c1.5-1.4,7.2-4.3,6.4,1.2C361.8,340.2,357,342,354.6,343Z"/><path class="cls-1" d="M335.5,344.7c4.1,1.7,8.8,1.5,13.1,1.9a.65.65,0,0,0,.6-.6v-.2c.1,0,.1-.1.1-.2h0a26.8,26.8,0,0,0-10.3-8.9c-2.5-1.1-6.2-1.3-7.4,1.8C330.4,341.4,333.1,343.7,335.5,344.7Zm-2.2-3.5c-2.3-5,4.1-3.8,5.9-2.9,1.1.6,2.2,1.3,3.3,2a73.73,73.73,0,0,1,6.1,5c-2.1-.3-4.2-.4-6.4-.7C339.6,344.4,334.5,344,333.3,341.2Z"/><path class="cls-1" d="M340.7,334l-46.2,23.9s-48.2-43.5-52.6-43.9-69.2,43.6-101.8,43.8c-33.8.1-35.5-35.2-35.5-35.2l49.2-11.3c35.5-17.5,72.5-48.9,96.7-46C276.9,268.5,340.7,334,340.7,334Z"/><path class="cls-13" d="M329.4,327.9c-7.8,3.9-5.6,2.6-13.4,6.6-3.8,1.9-22.9,11.6-26.1,14-.1,0,0,.2.1.1,3.8-1.3,22.7-11.3,26.5-13.3,7.7-4.1,5.4-3,13.1-7.1.1,0,.1-.1,0-.2a.31.31,0,0,0-.2-.1Z"/><path class="cls-13" d="M286.3,346.9c-9-8-38.6-33.9-39.8-34.9a13.86,13.86,0,0,0-3.1-2.3,3.3,3.3,0,0,0-2.9.2c-1.4.6-2.7,1.3-4.1,2l-8,3.9c-10.4,5-20.6,10.2-31.1,15.1-10,4.7-17.2,9.1-27.7,12.7a161.43,161.43,0,0,1-32.1,7.7c-1.4.2-2.7.3-4.1.4h-.1v.1h.1a126,126,0,0,0,31.6-5.9c10.4-3.2,17.4-7.3,27.3-11.9,10.2-4.7,20.3-9.7,30.4-14.7,5.3-2.6,10.6-5.3,16-7.9,1.2-.6,2.9-1.9,4.3-1.2a6.1,6.1,0,0,1,1.6,1.2l1.8,1.5c2.3,1.9,38.6,33.1,39.8,34C286.2,347.1,286.3,347,286.3,346.9Z"/><path class="cls-1" d="M104.6,322.6s-5.5,31.9,10.4,44.5,133,11,150.7,5.3,18.3-34.4-1.1-41c-18.5-6.3-97-9.4-98.9-10.2-.5-.2,7-4.7,6.9-4.9l-17.9-5.5Z"/><path class="cls-13" d="M128.8,321.8c0-.1-.2-.1-.2,0a15.53,15.53,0,0,1-3.7,10.1c-2.7,3.1-6.7,4.9-10.4,6.7-.4.2-.1.7.3.6a30.32,30.32,0,0,0,6.4-2.8,15.56,15.56,0,0,0,4.8-4A13.39,13.39,0,0,0,128.8,321.8Z"/><path class="cls-13" d="M164.5,317.8c-.8-1-1.7-2-2.5-3-2-2.4-4-4.8-6.1-7.1-.2-.2-.6.1-.4.3,1.4,1.9,2.9,3.6,4.4,5.4.8.9,1.5,1.9,2.3,2.8a14,14,0,0,1,2.1,2.7,1.36,1.36,0,0,1-1.2,2,4.11,4.11,0,0,1-2.6-.9,37.22,37.22,0,0,1-4.3-4.6c-.8-1-1.7-1.9-2.5-2.8s-1.9-1.9-2.8-2.9h-.1v.1c.8,1.1,1.5,2.2,2.3,3.3s1.6,2.2,2.4,3.2l2.4,3a10,10,0,0,0,2.4,2.2c1.5.9,4.2,1.1,5-.9A3.16,3.16,0,0,0,164.5,317.8Z"/><path class="cls-13" d="M263.3,372.5c-6.1.1-12.2.5-18.3.6s-12.1.2-18.2.1c-12.2-.1-24.4-.6-36.5-1.4-12.3-.9-25.5-2.1-37.7-3.8-5.8-.8-11.8-1.5-17.5-2.7a27,27,0,0,1-13.8-7.1c-7.9-7.7-11-18.9-12.2-29.7-.2-1.4-.3-2.9-.4-4.3,0-.1-.1-.1-.1,0,.7,11,2.4,22.5,9.4,31.4a27.18,27.18,0,0,0,11.3,8.8c5.5,2.2,11.5,2.7,17.3,3.5,12.2,1.7,25.5,2.9,37.9,3.9s24.8,1.6,37.2,1.7,24.9,0,37.3-.6l4.5-.3c-.1,0-.1,0-.2-.1Z"/><path class="cls-13" d="M224.8,325.5c-3.9-.6-7.7-1.1-11.6-1.5s-7.8-.8-11.7-1.1c-7.7-.6-15.5-1.2-23.3-1.6-4.4-.2-8.8-.2-13.2-.2-.1,0-.1.2,0,.2,7.8.7,15.5,1.2,23.3,1.7s15.5,1.2,23.2,1.9c4.4.4,8.8.7,13.2,1.1C225.1,326.1,225.1,325.6,224.8,325.5Z"/><path class="cls-13" d="M173.6,315.9a51,51,0,0,0-8.9,4.8,67.37,67.37,0,0,0-8.2,5.8c-.1.1,0,.1.1.1,3-1.4,5.9-3.1,8.8-4.8a74.84,74.84,0,0,0,8.4-5.4C174,316.1,173.8,315.8,173.6,315.9Z"/><path class="cls-5" d="M208.8,213.8l-11.3,31a1.17,1.17,0,0,0,.9,1.8l16.4,1.7a2.51,2.51,0,0,0,2.4-1.5l11.3-31a1.17,1.17,0,0,0-.9-1.8l-16.4-1.7A2.92,2.92,0,0,0,208.8,213.8Z"/><path class="cls-4" d="M210.8,214l-11.3,31a1.17,1.17,0,0,0,.9,1.8l16.4,1.7a2.75,2.75,0,0,0,2.5-1.5l11.3-31a1.15,1.15,0,0,0-.3-1.6,1.42,1.42,0,0,0-.6-.2l-16.4-1.7A2.65,2.65,0,0,0,210.8,214Z"/><path class="cls-1" d="M215.2,215.9a1.38,1.38,0,0,1-1.6,1.2,1.34,1.34,0,0,1-1.2-1.5h0a1.39,1.39,0,0,1,1.7-1.1,1.41,1.41,0,0,1,1.1,1.4Z"/><path class="cls-6" d="M151.4,259c7.1,20.8,25.2,43.6,31.7,46.1,3.9,1.4,10.9,3.2,16.8-.9,12.9-9,26.8-26.2,30-37.3,1.2-3.9-17.4-14.8-20.6-11.8-7.6,6.9-20.8,24.2-22,24-4.4-.8-16.6-16-28-27C148.8,241.8,148.6,250.7,151.4,259Z"/><path class="cls-6" d="M232.8,246.2c-1.2-8.4-2.8-10.3,0-17.9,1.8-5-.6-8.3-4.7-4.6-6.7,6.1-7.4,17.2-6.6,21.1Z"/><path class="cls-6" d="M228.7,270.2s4.9-10.9,4.5-20c-.2-6.3-2.3-19.8-18.8-28.6-3.9-2.1-11-2.3-5.8,3.4,3.6,4.1,7.2,5.6,8.9,8.3,0,0-9,.8-10.9,4.8a84.28,84.28,0,0,0-4.4,10.8,17.38,17.38,0,0,0,1.9,1s-1.5,3.9.8,9.8Z"/><path class="cls-6" d="M232,244.3c-2.2-2.4-7.1-7.4-12.5-10-6-3-18.3-7.1-20.5-2.7-1.6,3.2,3,5.2,3,5.2s-5.5-.6-6.2,2.6c-.7,3,2.9,4.3,2.9,4.3s-3.4.2-3.5,3.2c-.2,3.6,6.9,2.6,9.9,6.4C205.8,254.2,232,244.3,232,244.3Z"/><path class="cls-1" d="M217.4,241.1a26.78,26.78,0,0,0-15.3-4.4c-.1,0-.2.1-.1.1a73.24,73.24,0,0,1,15.4,4.3Z"/><path class="cls-1" d="M214.2,247.1c-2.3-1.4-9.4-4-15.5-3.4-.1,0-.2.1-.1.1a68.79,68.79,0,0,1,15.6,3.3Z"/><path class="cls-5" d="M200.5,262l31.6,23.6s-24.7,22.9-32.2,23.9a40.72,40.72,0,0,1-19.5-2.8c-4.1-1.8-21.4-26.4-29.5-45.7s2.5-17.8,9.7-10.1,26,26.8,27.1,26.4S200.5,262,200.5,262Z"/><path class="cls-1" d="M223.4,290.6c-11.1-10.6-24.4-20-26.6-21.8-.1-.1-.2.1-.1.2,2.2,1.7,16.2,14.1,26.5,21.8C223.4,290.9,223.5,290.7,223.4,290.6Z"/><path class="cls-1" d="M175.8,302.3c-6.9-8.3-18.6-26.4-24.9-41.3-5.6-13.3-2.3-16.7,2.6-15l.2.4Z"/><path class="cls-2" d="M172.2,319.7l-69.1,4c.1-1.4,10.4-42.5,18.1-57.6,10-19.3,14.9-20.8,17.9-21.8,3.8-1.3,10.4-.4,12,.3,1.8.9,7.3,11,9.2,18.4C164.1,277.9,173.2,318.8,172.2,319.7Z"/><path class="cls-5" d="M139.3,286.2a11,11,0,0,0-2.6-.6,6.77,6.77,0,0,0,2.4,1.2,11,11,0,0,0,2.6.6C140.9,287,140.1,286.5,139.3,286.2Zm19-21a11,11,0,0,0-2.6-.6,6.77,6.77,0,0,0,2.4,1.2,11,11,0,0,0,2.6.6l-2.4-1.2Zm-6.9,54a11,11,0,0,0-2.6-.6,6.77,6.77,0,0,0,2.4,1.2,11,11,0,0,0,2.6.6,13.44,13.44,0,0,0-2.4-1.2Zm-32.5-47.8c-.1.1-.1.3-.2.4a4.1,4.1,0,0,0,1.1.1A4.05,4.05,0,0,1,118.9,271.4Zm49.2,25.4a6.12,6.12,0,0,0-1.2-.5,11,11,0,0,0-2.6-.6,6.77,6.77,0,0,0,2.4,1.2,9.83,9.83,0,0,0,1.6.5Zm-41.7,22.4a11,11,0,0,0-2.6-.6,6.77,6.77,0,0,0,2.4,1.2,11,11,0,0,0,2.6.6A13.44,13.44,0,0,0,126.4,319.2Zm45.1.5h.5c.1-.4.1-.7.2-1.1a6.73,6.73,0,0,0-.7,1.1Zm-32.4-11.1a11,11,0,0,0-.6,2.6,11.32,11.32,0,0,0,1.9-5A9.21,9.21,0,0,0,139.1,308.6Zm11.7-30.4a11,11,0,0,0-.6,2.6,9,9,0,0,0,1.2-2.4,11,11,0,0,0,.6-2.6C151.6,276.6,151.1,277.4,150.8,278.2Zm2.2-25.7a11,11,0,0,0-.6,2.6,9.21,9.21,0,0,0,1.3-2.4,11,11,0,0,0,.6-2.6A14.14,14.14,0,0,0,153,252.5Zm6.8,55.8a17.61,17.61,0,0,0-2.3,1.4,11.44,11.44,0,0,0,4.9-2.2,19.75,19.75,0,0,0-2.6.8Zm-33-6.2a10.89,10.89,0,0,0-2.3,1.4,8.65,8.65,0,0,0,2.6-.8,10.89,10.89,0,0,0,2.3-1.4,19.75,19.75,0,0,0-2.6.8Zm5.6-29.3a17.61,17.61,0,0,0-2.3,1.4A11.44,11.44,0,0,0,135,272a7.86,7.86,0,0,0-2.6.8Zm32.5,9.5a10.23,10.23,0,0,0-2.2,1.4,8.78,8.78,0,0,0,2.3-.7Zm-53.5,29.2a10.89,10.89,0,0,0-1.4-2.3,7.86,7.86,0,0,0,.8,2.6,10.89,10.89,0,0,0,1.4,2.3,11.22,11.22,0,0,0-.8-2.6Zm11.7-23.6a10.89,10.89,0,0,0-1.4-2.3,10.56,10.56,0,0,0,2.2,4.8,12.09,12.09,0,0,0-.8-2.5Zm28.5,8.8a17.61,17.61,0,0,0-1.4-2.3,7.86,7.86,0,0,0,.8,2.6,10.89,10.89,0,0,0,1.4,2.3,19.75,19.75,0,0,0-.8-2.6Zm-10.2-35.8a10.89,10.89,0,0,0-1.4-2.3,7.86,7.86,0,0,0,.8,2.6,10.89,10.89,0,0,0,1.4,2.3,7.86,7.86,0,0,0-.8-2.6Z"/><path class="cls-6" d="M152.5,256.5c-3.9.9-10.7-5-13.4-9.9-.2-.3.3-3.9.7-8.2.2-2.6.4-5.5.4-8.2,0-.5,16.8,4,16.8,4a45.09,45.09,0,0,0-1.6,10.3,4.1,4.1,0,0,0,.1,1.1v.2C155.9,247.9,156.3,255.6,152.5,256.5Z"/><path class="cls-1" d="M141.3,230.3c.8,4.5,3.6,15.4,12.6,15.6a9.7,9.7,0,0,0,1.7-.1v-.2a4.1,4.1,0,0,1-.1-1.1,40.2,40.2,0,0,1,1.6-10.3C157,234.3,144.9,231,141.3,230.3Z"/><path class="cls-6" d="M139.4,209.1c-2.4,5.7-1,23.2,2.8,27.4,5.5,6.1,15.5,7.7,20.9.9,5.3-6.6,3.1-29.3-1.3-33.3C155.5,198.2,143,200.6,139.4,209.1Z"/><path class="cls-1" d="M155.1,221.2l-.1.1c.2,1.2.2,2.5-.9,3v.1C155.5,224.1,155.4,222.3,155.1,221.2Z"/><path class="cls-1" d="M153.9,220.1c-1.9.1-1.6,3.9.1,3.8S155.5,220.1,153.9,220.1Z"/><path class="cls-1" d="M161.7,220.8a.1.1,0,0,1,.1.1c.1,1.2.3,2.5,1.4,2.8v.1C161.8,223.7,161.5,221.9,161.7,220.8Z"/><path class="cls-1" d="M162.6,219.5c1.9-.3,2.3,3.5.6,3.8S161.1,219.7,162.6,219.5Z"/><path class="cls-1" d="M152.4,217.8c.5-.2,1-.4,1.4-.6a2.38,2.38,0,0,0,1.3-.9.78.78,0,0,0-.2-1,2,2,0,0,0-2-.1,3.11,3.11,0,0,0-1.6,1.4.89.89,0,0,0,.4,1.2A.85.85,0,0,0,152.4,217.8Z"/><path class="cls-1" d="M164.3,217.5a10,10,0,0,1-1.6-.2,3,3,0,0,1-1.6-.5.77.77,0,0,1-.1-1,2.28,2.28,0,0,1,1.9-.7,2.73,2.73,0,0,1,1.9.8.91.91,0,0,1,0,1.2A.51.51,0,0,1,164.3,217.5Z"/><path class="cls-1" d="M153.5,231.9c.2.4.4.8.8.9a5.7,5.7,0,0,0,1.3.1m0,.1a1.57,1.57,0,0,1-1.6.2,1.37,1.37,0,0,1-.6-1.3c0-.1.1-.1.2,0Z"/><path class="cls-1" d="M154.9,228.7a4,4,0,0,0,2.8,1.6,3.3,3.3,0,0,0,1.4,0h.5c.1,0,.2-.1.2-.3h0v-.1h0v-.1a20.87,20.87,0,0,0-.2-2.3c.3.1,2.1.8,2,.3a60.76,60.76,0,0,0-2.4-12,.1.1,0,1,0-.2,0c.4,3.8,1.4,7.4,1.8,11.2a6.46,6.46,0,0,0-1.9-.4c-.1,0,.4,2.6.4,3h0a5.26,5.26,0,0,1-4.2-1C154.9,228.5,154.8,228.6,154.9,228.7Z"/><path class="cls-1" d="M158.2,230.2a3.87,3.87,0,0,1-1.9,1.2,2.44,2.44,0,0,1-1.2,0c-.9-.3-.8-1.1-.6-1.8a3.13,3.13,0,0,1,.5-1A5.45,5.45,0,0,0,158.2,230.2Z"/><path class="cls-11" d="M156.3,231.4a2.44,2.44,0,0,1-1.2,0c-.9-.3-.8-1.1-.6-1.8A2.12,2.12,0,0,1,156.3,231.4Z"/><path class="cls-1" d="M137.1,222.3c4.5.8,7.4-4.4,6.8-8.8,0,0,11.8,2.8,13.4-6.8a9.32,9.32,0,0,0,7.4,5.1l1,3.7c1.3-.2,2.9-3.6.2-6.6a11.51,11.51,0,0,0-3-8.1,6.53,6.53,0,0,0-7-1.7,10.15,10.15,0,0,0-7.1-2.5,8.52,8.52,0,0,0-6.7,4s-6.1.5-7.5,4.6a9,9,0,0,0,.4,7.2s-1.7,1.5-1.3,5.2C134.1,219.9,135.8,222,137.1,222.3Z"/><path class="cls-1" d="M157.1,205.8a19.42,19.42,0,0,1-.2,2.4,5.68,5.68,0,0,1-.7,2.2,6.43,6.43,0,0,1-3.1,3.2,9.91,9.91,0,0,1-4.5.7l-2.3-.3a18.92,18.92,0,0,1-2.3-.5,15.46,15.46,0,0,0,2.3.7c.8.2,1.6.3,2.4.5a9.83,9.83,0,0,0,4.8-.6,6.63,6.63,0,0,0,3.3-3.5A11.07,11.07,0,0,0,157.1,205.8Z"/><path class="cls-1" d="M162.7,212a13.56,13.56,0,0,1-3.4-2.3,10.1,10.1,0,0,1-1.3-1.6,15.39,15.39,0,0,1-.8-1.9,4.92,4.92,0,0,0,.4,2.1,5.67,5.67,0,0,0,1.2,1.8,7.49,7.49,0,0,0,1.8,1.3A8.3,8.3,0,0,0,162.7,212Z"/><path class="cls-6" d="M141.7,223.4s-3.4-5.9-6-4.7-.4,9.4,2.5,10.8a3,3,0,0,0,4.1-1.2.1.1,0,0,1,.1-.1Z"/><path class="cls-1" d="M136.3,221.1c2,1,2.9,3,3.5,5.1a1.68,1.68,0,0,0-2.2-.8.35.35,0,0,0-.2.1c-.1,0,0,.1,0,.1a1.76,1.76,0,0,1,2,.8,8.86,8.86,0,0,1,.8,1.7.21.21,0,0,0,.4-.1h0c.3-2.6-1.5-6.5-4.3-6.9Z"/><path class="cls-6" d="M132.3,249.4c-23.4,24.3-57.4,85.9-61.6,94.7-2.9,6,28.5,21.8,29.8,17.4,1.7-5.6,29-74.5,36.3-100.5C140.7,246.7,137.1,244.4,132.3,249.4Z"/><path class="cls-6" d="M101.9,357.4c-1.1,3-4.8,15.7-7.4,17.2s-16.2,1.2-23.1,1.2-8.2-1.9-8.1-4.3,14.6-2.8,14.6-2.8-19.3,5.6-24.1,6.5-16,3.7-17.7-.3c-.7-1.8,2.3-3.6,2.3-3.6s-4.7,1.4-5.4-1c-.8-2.6,2.9-4.1,2.9-4.1s-2.9.6-3-1.6c-.2-4.8,18.1-7.2,18.1-7.2s-14,6.8-14.5,2.9c-.6-5.5,28.2-11.5,31.2-13.8a20.77,20.77,0,0,0,4.8-5.9Z"/><path class="cls-1" d="M63.3,372.8A1.78,1.78,0,0,1,64,371a6.19,6.19,0,0,1,1.7-1.1,18.71,18.71,0,0,1,4-1.3c2.7-.7,5.5-1.2,8.3-1.9a34.67,34.67,0,0,0-8.5,1,20.16,20.16,0,0,0-4.1,1.5,6.12,6.12,0,0,0-1.7,1.5A2.29,2.29,0,0,0,63.3,372.8Z"/><path class="cls-1" d="M38.3,371.3c2-.5,3.9-1,5.9-1.6s3.9-1.2,5.8-1.8l5.8-1.8c1.9-.6,3.9-1.2,5.8-1.8a42.09,42.09,0,0,0-6,1.1c-2,.5-4,1-5.9,1.6s-3.9,1.2-5.8,2S40.2,370.4,38.3,371.3Z"/><path class="cls-1" d="M57,359.5a36,36,0,0,0-5.6.8,49.4,49.4,0,0,0-10.7,3.4,34,34,0,0,0-5,2.6c1.8-.6,3.5-1.3,5.3-1.9s3.5-1.2,5.3-1.7,3.6-1.1,5.3-1.6S55.2,360,57,359.5Z"/><path class="cls-1" d="M54.2,354.9a36.73,36.73,0,0,0-17,5.8c2.9-1,5.6-2.1,8.5-3S51.3,355.8,54.2,354.9Z"/><path class="cls-5" d="M136.4,267.8c-5.6,23.8-32,89-32,89L80.6,345.3l-12-5.8s40.9-63.9,57.6-84.8c1.3-1.6,2.5-3,3.6-4.1C140.1,239.6,140.7,249.4,136.4,267.8Z"/><path class="cls-1" d="M106.3,349.7c-14-8.1-29.9-14.5-32.7-15.9-.1-.1-.2.1-.1.2,2.7,1.1,20.2,10.5,32.7,15.9C106.4,350,106.5,349.8,106.3,349.7Z"/><path class="cls-1" d="M118.1,321.9l9.3-26.1c1.6-4.4,3.1-8.7,4.6-13.1s2.9-8.8,4.1-13.2c-1,4.5-2.2,9-3.6,13.4s-2.9,8.8-4.4,13.2-3.1,8.7-4.8,13S119.9,317.7,118.1,321.9Z"/><path class="cls-1" d="M136.6,272.2a12,12,0,0,1-1.1,2.6,8.34,8.34,0,0,1-.8,1.2c-.3.4-.6.7-.9,1.1.4-.9.8-1.7,1.2-2.5C135.6,273.8,136.1,273,136.6,272.2Z"/></g><g id="freepik--speech-bubbles--inject-52"><polygon class="cls-8" points="87.4 49.9 182.4 49.9 182.4 0 87.4 0 87.4 0 87.4 49.9"/><polygon class="cls-8" points="197.1 49.9 182.4 49.9 182.4 34.6 197.1 49.9"/><rect class="cls-12" x="96.5" y="8.6" width="76.8" height="0.9"/><rect class="cls-12" x="96.5" y="13.7" width="47.6" height="0.9"/><rect class="cls-12" x="96.5" y="24" width="65.2" height="0.9"/><rect class="cls-12" x="96.5" y="29.1" width="76.8" height="0.9"/><rect class="cls-12" x="96.5" y="34.2" width="76.8" height="0.9"/><rect class="cls-12" x="96.5" y="39.3" width="37.9" height="0.9"/><polygon class="cls-7" points="126.4 102 181.8 102 181.8 68.3 126.4 68.3 126.4 68.3 126.4 102"/><polygon class="cls-7" points="181.8 83 181.8 68.3 197.1 68.3 181.8 83"/><path class="cls-12" d="M143.4,85.2a2.2,2.2,0,1,1-2.2-2.2h0A2.1,2.1,0,0,1,143.4,85.2Z"/><path class="cls-12" d="M156.3,85.2a2.2,2.2,0,1,1-2.2-2.2h0A2.1,2.1,0,0,1,156.3,85.2Z"/><path class="cls-12" d="M169.3,85.2a2.2,2.2,0,1,1-2.2-2.2h0A2.1,2.1,0,0,1,169.3,85.2Z"/><rect class="cls-7" x="252.8" y="173.1" width="95" height="44"/><polygon class="cls-7" points="238.1 217.1 252.8 217.1 252.8 201.8 238.1 217.1"/><rect class="cls-12" x="262.1" y="196.1" width="69" height="1"/><rect class="cls-12" x="262.1" y="201.2" width="58.2" height="1"/><rect class="cls-12" x="262.1" y="185.8" width="61.3" height="0.9"/><rect class="cls-12" x="262.1" y="180.7" width="75.1" height="0.9"/><rect class="cls-12" x="262.1" y="206.3" width="62.5" height="1"/></g></svg>