<svg id="Layer_1" data-name="Layer 1" xmlns="http://www.w3.org/2000/svg" viewBox="0 0 209.15 185.39"><defs><style>.cls-1{fill:#263238;}.cls-2{fill:#f7a9a0;}.cls-3{fill:#fff;}.cls-4{fill:#f8180e;}.cls-5{fill:#455a64;}.cls-6,.cls-7{isolation:isolate;opacity:0.1;}.cls-7{fill:#050400;}.cls-8{fill:#ff9abb;}.cls-9{fill:#c7c7c7;}.cls-10{fill:#a6a6a6;}</style></defs><g id="freepik--Character--inject-40"><path class="cls-1" d="M105.43,1.32c11.27,5,18.18,25.7,10.24,44.53C108.44,63,88.42,72.31,76.67,68.1,64.18,63.64,60.33,49.88,66,41.61c5.44-8,14.43-10.39,16.83-17.68,1.15-3.49-.11-9.57,1.36-14.8C85.82,3.3,96.38-2.73,105.43,1.32Z"/><path class="cls-1" d="M89.26,69.28A37.53,37.53,0,0,0,106.09,61a41.54,41.54,0,0,0,11.07-15.27A35.62,35.62,0,0,0,120,27.11a35.23,35.23,0,0,0-7.36-17.23,37.06,37.06,0,0,1,6.79,17.3,35,35,0,0,1-.26,9.31,38.71,38.71,0,0,1-2.68,8.94,45.19,45.19,0,0,1-4.54,8.16A40.27,40.27,0,0,1,98,65.87,36.06,36.06,0,0,1,89.26,69.28Z"/><path class="cls-1" d="M64,43.87A18.48,18.48,0,0,1,67.07,39,25.07,25.07,0,0,1,71.31,35c1.58-1.14,3.14-2.33,4.65-3.58a25.89,25.89,0,0,0,4.15-4.22,18.08,18.08,0,0,0,1.6-2.54,11.49,11.49,0,0,0,.88-2.87,48.22,48.22,0,0,0,.48-5.87,23,23,0,0,1,.94-5.7,15.86,15.86,0,0,1,2.71-5.12,14.83,14.83,0,0,0-3,5,22.4,22.4,0,0,0-1.17,5.78c-.2,2-.23,3.9-.59,5.78a10.56,10.56,0,0,1-.86,2.69,15.5,15.5,0,0,1-1.55,2.39C77.26,29.84,74,32.12,71,34.55a24.68,24.68,0,0,0-4.19,4.17A17.37,17.37,0,0,0,64,43.87Z"/><path class="cls-2" d="M186.66,181.79c-.58-2.26-36.24-56.62-38.85-57.8-.3-.15-18.64,11.13-18.64,11.13-.78.91-33.57-8.36-33.57-8.36l-3,40.11,60.68,2.79s7.87,5.36,15.09,9.79h0a94.51,94.51,0,0,0,9.53,5.45C180.82,185.88,187.26,184,186.66,181.79Z"/><path class="cls-3" d="M177.88,184.89c-1.15-.37-5.08-2.69-9.52-5.44h0c-7.22-4.42-15.08-9.79-15.08-9.79L139.77,169l-18.85-35.49c4.58,1.13,8,1.86,8.26,1.56,0,0,18.33-11.27,18.63-11.12,2.61,1.18,38.27,55.54,38.85,57.8S180.82,185.88,177.88,184.89Z"/><path class="cls-4" d="M187,181.89c-.62-2.32-36.46-56.67-39.14-57.88-1-.46-9.93,4.25-18.71,11.11l23.15,35s22.6,14,25.67,15S187.63,184.2,187,181.89Z"/><path class="cls-1" d="M184.33,182.54c-6.23-9-30.52-45.7-36-55h0c6.38,8.75,30.37,45.68,36.1,55C184.6,182.64,184.46,182.73,184.33,182.54Z"/><path class="cls-1" d="M173.73,182.92a8.75,8.75,0,0,1-1.37-6.92,8.48,8.48,0,0,1,3.53-5.24s.12.06.07.11a10.11,10.11,0,0,0-2.11,12,.07.07,0,0,1-.07.07Z"/><path class="cls-1" d="M155.12,172.42c-2.45-3.61-4-8.69-2.47-12.92.06-.16.29-.08.31.06a60.52,60.52,0,0,0,2.65,12.63.28.28,0,0,1-.13.36.27.27,0,0,1-.36-.13Z"/><path class="cls-1" d="M158.08,174.47c-2.46-3.61-4-8.69-2.47-12.92.06-.16.29-.08.3.07a60.45,60.45,0,0,0,2.66,12.62.28.28,0,0,1-.13.36A.27.27,0,0,1,158.08,174.47Z"/><path class="cls-1" d="M161,176.56c-2.45-3.61-4-8.69-2.47-12.92.06-.16.29-.08.31.07a59.8,59.8,0,0,0,2.65,12.62.28.28,0,0,1-.13.36.27.27,0,0,1-.36-.13Z"/><path class="cls-1" d="M164,178.65c-2.45-3.61-3.95-8.68-2.46-12.92,0-.16.29-.08.3.07a59.82,59.82,0,0,0,2.66,12.62.28.28,0,0,1-.21.34A.27.27,0,0,1,164,178.65Z"/><path class="cls-1" d="M141.2,135.53c-2.68-4.09,3.68-8.28,6.37-4.17S143.9,139.64,141.2,135.53Z"/><path class="cls-1" d="M153.14,178.92c1.25-3.64.87-7.69,1-11.47a.53.53,0,0,0-.56-.5.47.47,0,0,0-.17,0,.11.11,0,0,0-.14-.07l0,0a23,23,0,0,0-7.14,9.47c-.83,2.18-.8,5.49,2,6.33S152.42,181.05,153.14,178.92Zm-2.9,2.16c-4.21,2.26-3.52-3.33-2.84-4.92a25.31,25.31,0,0,1,1.58-2.95,65.57,65.57,0,0,1,4.05-5.62c-.16,1.85-.15,3.71-.24,5.56C152.69,175.42,152.55,179.84,150.24,181.08Z"/><path class="cls-1" d="M142.32,155.53c-2.19,1.85-.92,4.91.72,6.58a22.89,22.89,0,0,0,10.3,5.87.11.11,0,0,0,.14-.09s0,0,0,0a.55.55,0,0,0,.51-.57.4.4,0,0,0,0-.15c-1.57-3.43-2.83-7.31-5.41-10.16C147.05,155.33,144.39,153.77,142.32,155.53Zm8.2,6.9c.82,1.67,1.54,3.37,2.42,5a64.68,64.68,0,0,1-5.94-3.55,25.27,25.27,0,0,1-2.62-2.09c-1.26-1.19-4.1-6,.65-5.64,2.63.27,4.52,4.27,5.49,6.27Z"/><path class="cls-5" d="M105.74,118.26S54.74,94.76,32,95c-27.08.26-48.2,32.36-15,55.61,29.3,20.55,121.86,19.27,121.86,19.27L117.29,131a197.65,197.65,0,0,0-59-11.09L105,129.5Z"/><path class="cls-1" d="M104.82,126c-4-1-8.07-1.72-12.13-2.46s-8.2-1.41-12.32-2A245.13,245.13,0,0,0,55.6,119c-.77,0-1.55-.06-2.33-.09l-.5-.16c-.39-.12-.78-.25-1.17-.35-.74-.19-1.49-.35-2.23-.52-1.55-.34-3.11-.62-4.65-1a.09.09,0,0,0-.1.05.08.08,0,0,0,.05.09c1.55.45,3.06,1,4.6,1.46l1.34.38c-3,0-6.09,0-9.14,0a.08.08,0,1,0,0,.15c4.14,0,8.29.29,12.42.64s8.19.71,12.27,1.22c8.25,1,16.48,2.33,24.67,3.75,4.6.8,9.2,1.69,13.84,2.19a.42.42,0,0,0,.49-.34A.43.43,0,0,0,104.82,126Z"/><path class="cls-1" d="M129.36,168.08c-1.32-2.47-2.41-5.08-3.6-7.62s-2.39-5.09-3.59-7.63c-2.4-5.07-11.06-22.16-12-23.37a.11.11,0,0,0-.13,0,.09.09,0,0,0,0,.11c.37,1.3,5.74,12.6,7,15.12,2.48,5,5.11,10,7.7,15,.74,1.42,1.5,2.83,2.26,4.25s1.55,2.81,2.23,4.26C129.27,168.24,129.41,168.17,129.36,168.08Z"/><path class="cls-2" d="M8.82,181.26C9.49,179,47.28,126.11,49.93,125c.3-.14,18.18,11.85,18.18,11.85.75,1,33.88-7,33.88-7l1.45,40.2-60.75.39s-8.07,5-15.46,9.18h0a90.75,90.75,0,0,1-9.74,5.06C14.5,185.57,8.17,183.48,8.82,181.26Z"/><path class="cls-3" d="M17.51,184.7a87.12,87.12,0,0,0,9.73-5.06h0c7.39-4.13,15.46-9.19,15.46-9.19l13.52-.08,20.21-34.72c-4.62.95-8.07,1.54-8.31,1.24,0,0-17.87-12-18.18-11.85-2.65,1.07-40.44,54-41.11,56.21S14.5,185.57,17.51,184.7Z"/><path class="cls-4" d="M8.5,181.34c.71-2.3,38.68-55.18,41.4-56.28,1-.43,9.75,4.63,18.25,11.83L43.63,171S20.5,184,17.39,185,7.82,183.63,8.5,181.34Z"/><path class="cls-1" d="M11.16,182.1c6.58-8.71,32.31-44.46,38.15-53.57,0-.07,0-.11-.05,0C42.55,137,17.11,173,11,182,10.89,182.18,11,182.28,11.16,182.1Z"/><path class="cls-1" d="M21.73,182.89A8.79,8.79,0,0,0,23.38,176a8.48,8.48,0,0,0-3.32-5.38s-.12.06-.07.1a10.14,10.14,0,0,1,1.63,12.05C21.58,182.89,21.68,183,21.73,182.89Z"/><path class="cls-1" d="M40.75,173.1c2.59-3.51,4.29-8.53,3-12.81,0-.17-.28-.1-.3.05a61.33,61.33,0,0,1-3.15,12.51.27.27,0,0,0,.45.25Z"/><path class="cls-1" d="M37.71,175.07c2.6-3.51,4.3-8.52,3-12.81-.05-.17-.29-.09-.31.05a60.52,60.52,0,0,1-3.15,12.51.27.27,0,0,0,.19.33A.3.3,0,0,0,37.71,175.07Z"/><path class="cls-1" d="M34.68,177.05c2.59-3.52,4.3-8.53,3-12.82,0-.17-.29-.09-.31.05a60.68,60.68,0,0,1-3.15,12.51.27.27,0,0,0,.22.32A.26.26,0,0,0,34.68,177.05Z"/><path class="cls-1" d="M31.64,179c2.6-3.52,4.3-8.53,3-12.82,0-.16-.28-.09-.31.06a60.68,60.68,0,0,1-3.15,12.51.27.27,0,0,0,.19.33A.3.3,0,0,0,31.64,179Z"/><path class="cls-1" d="M56.11,136.83c2.85-4-3.35-8.42-6.2-4.42S53.26,140.83,56.11,136.83Z"/><path class="cls-1" d="M47.46,183.73c2.78-.73,2.95-4,2.2-6.25a23.12,23.12,0,0,0-6.76-9.74c-.07-.06-.14,0-.18,0A.54.54,0,0,0,42,168a.42.42,0,0,0,0,.15c-.06,3.78-.6,7.82.49,11.5C43.1,181.87,44.82,184.42,47.46,183.73ZM43.05,174c0-1.86.06-3.71,0-5.56q2.06,2.79,3.82,5.77a24.48,24.48,0,0,1,1.47,3c.61,1.62,1.08,7.23-3,4.81C43,180.66,43.06,176.18,43.05,174Z"/><path class="cls-1" d="M47.91,158c-2.69,2.75-4.1,6.57-5.81,9.94a.54.54,0,0,0,.31.7l.15,0a.1.1,0,0,0,.09.12h.05a22.87,22.87,0,0,0,10.53-5.45c1.7-1.61,3.1-4.61,1-6.55S49.48,156.42,47.91,158Zm3.56-.69c4.77-.22,1.73,4.53.43,5.66a23,23,0,0,1-2.7,2,67.53,67.53,0,0,1-6.08,3.32c.94-1.6,1.74-3.27,2.62-4.91C46.82,161.42,48.82,157.42,51.47,157.29Z"/><path class="cls-5" d="M103.53,117.49s51.38-15.7,78.85-12.53c26.9,3.1,38.07,36.77,11.92,55.15-28.55,20.07-136.38,13.52-136.38,13.52l22.9-41.3s36.67-8.79,70.15-8.59l-47,7.74Z"/><path class="cls-1" d="M79.25,135a.8.8,0,0,0,0-.21v-.17a1.86,1.86,0,0,1,.1-.39c.07-.28.16-.54.25-.81s.21-.52.32-.78a6.65,6.65,0,0,1,.43-.73l.06-.05h.12c4-.87,31.49-5.57,35.58-6.15s8.25-1.09,12.39-1.55a248.52,248.52,0,0,1,24.84-1.59h2.43c.16-.06.34-.09.51-.14.39-.11.78-.22,1.18-.3.75-.17,1.5-.3,2.25-.43,1.56-.29,3.13-.5,4.69-.83.09,0,.13.12,0,.14-1.56.39-3.09.89-4.66,1.28l-1.35.32c3.05.08,6.09.23,9.14.42.09,0,.1.15,0,.15-4.14-.13-8.3,0-12.44.14s-8.21.39-12.3.74c-8.29.7-16.56,1.68-24.81,2.77-4.62.61-32.61,5.49-37.26,5.82h-.06l-.12.32c-.12.26-.24.51-.38.76s-.25.49-.39.72l-.22.34-.11.17a.94.94,0,0,0-.12.18S79.2,135.09,79.25,135Z"/><path class="cls-1" d="M66.5,170.92c1.42-2.41,2.62-5,3.91-7.47L74.3,156c2.59-5,11.93-21.7,12.87-22.88,0-.08.18,0,.15.09-.42,1.28-6.23,12.35-7.57,14.82-2.68,4.94-5.51,9.79-8.29,14.67-.79,1.4-1.62,2.77-2.42,4.16s-1.67,2.75-2.4,4.17a.08.08,0,0,1-.14-.08Z"/><path class="cls-2" d="M90.74,43.76C68.15,55.94,47,70.65,43.14,80.7c-2.43,6.33.35,15.64,3,22.46,1.29,3.32,30.82-6.84,29.09-10.23C71,84.75,69.58,81.44,69.58,81.44c.43-.89,25-22.89,31.85-32.75C111,35,100.62,38.42,90.74,43.76Z"/><path class="cls-1" d="M66.37,76.51A8.41,8.41,0,0,1,68.67,79a7.7,7.7,0,0,1,1.2,3.17c-.68-.93-1.24-1.85-1.83-2.77A29.89,29.89,0,0,1,66.37,76.51Z"/><path class="cls-4" d="M58.13,62,75,78.08s21.62-19.74,27.81-30.41,1.47-11.58-11.1-5.37S58.13,62,58.13,62Z"/><path class="cls-4" d="M58.13,62,75,78.08s21.62-19.74,27.81-30.41,1.47-11.58-11.1-5.37S58.13,62,58.13,62Z"/><path class="cls-1" d="M78.44,73.75A166.62,166.62,0,0,1,63.51,59.33c-.06-.06.05-.15.11-.09,1.26,1.34,9.09,8.3,14.94,14.42C78.63,73.73,78.52,73.82,78.44,73.75Z"/><path class="cls-6" d="M102.82,47.66C96.64,58.33,75,78.08,75,78.08l-5.86-5.57,36-33.21C106.07,40.59,105.36,43.31,102.82,47.66Z"/><path class="cls-2" d="M84,75.24,79.32,102.3s21,12.08,56.45,1.19c0,0-6.06-43.9-19.55-59.07-6.75-7.59-14.84-7.17-20.08-2-1.32,1.29-12.25,14.66-14,22.48C80.57,71.77,84,75.24,84,75.24Z"/><path class="cls-4" d="M84,75.24,80.9,86.42,96.75,81.6l37.07,4.82s-4.13-26.8-17.62-42c-6.75-7.59-14.84-7.17-20.08-2-1.32,1.29-12.25,14.66-14,22.48C80.57,71.77,84,75.24,84,75.24Z"/><path class="cls-1" d="M92.9,74.27a50.38,50.38,0,0,1,7.26.46c1.19.18,2.37.42,3.54.68.59.13,1.18.24,1.77.35a7.32,7.32,0,0,0,1.87.16m0,.09a11.73,11.73,0,0,1-1.77.14,10,10,0,0,1-1.73-.15c-1.21-.17-2.41-.4-3.62-.58-2.44-.38-4.88-.75-7.34-1a.09.09,0,0,1-.09-.11.09.09,0,0,1,.11-.09Z"/><path class="cls-1" d="M87.16,77a53.85,53.85,0,0,1,5.94-.89c1-.08,2-.11,3-.12h1.43c.53,0,1,.1,1.58.11a0,0,0,1,1,0,.08c-.5,0-1,.1-1.49.14l-1.49.11-3,.23c-2,.13-4,.28-6,.48a.07.07,0,0,1,0-.11S87.14,77,87.16,77Z"/><path class="cls-4" d="M95.27,83s-2,5.27-6.72,6.7c0,0-.69-4.78.7-6.66.69-.94,4.39-2,4.94-1.42A8.54,8.54,0,0,1,95.27,83Z"/><path class="cls-4" d="M95.27,83s-2,5.27-6.72,6.7c0,0-.69-4.78.7-6.66.69-.94,4.39-2,4.94-1.42A8.54,8.54,0,0,1,95.27,83Z"/><path class="cls-1" d="M95.27,83a12.91,12.91,0,0,1-2.53,4.19,10.43,10.43,0,0,1-1.87,1.64,9.21,9.21,0,0,1-2.25,1.1l-.26.09v-.28a16.56,16.56,0,0,1-.16-3.52,6.06,6.06,0,0,1,1-3.43,4.49,4.49,0,0,1,1.59-.87,11.37,11.37,0,0,1,1.71-.46,4.31,4.31,0,0,1,.88-.09,1.28,1.28,0,0,1,.89.21A7.42,7.42,0,0,1,95.27,83Zm0,0a9.34,9.34,0,0,0-1.12-1.31,1.15,1.15,0,0,0-.77-.11q-.42.06-.84.15a10.3,10.3,0,0,0-1.63.52,4.45,4.45,0,0,0-1.41.83,5.7,5.7,0,0,0-.86,3.16,23.1,23.1,0,0,0,.14,3.43l-.3-.19a9,9,0,0,0,2.15-1,10.78,10.78,0,0,0,1.86-1.51A14.87,14.87,0,0,0,95.27,83Z"/><path class="cls-7" d="M95.27,83a8.94,8.94,0,0,0-1.07-1.38l-.09-.06-.12,0h-.11a5.29,5.29,0,0,0-2.09.27,11.56,11.56,0,0,0,.9,2,3.17,3.17,0,0,0,1.67,1A11.47,11.47,0,0,0,95.27,83Z"/><path class="cls-4" d="M95.82,83.15s3.7,5.78,7,7.25c0,0,1.47-3.67-.12-6.8-.71-1.4-5.74-2.91-6.18-2.2A6.61,6.61,0,0,0,95.82,83.15Z"/><path class="cls-4" d="M95.82,83.15s3.7,5.78,7,7.25c0,0,1.47-3.67-.12-6.8-.71-1.4-5.74-2.91-6.18-2.2A6.61,6.61,0,0,0,95.82,83.15Z"/><path class="cls-1" d="M95.82,83.15A39.94,39.94,0,0,0,99,87.07a18.59,18.59,0,0,0,1.8,1.75,8.55,8.55,0,0,0,2,1.37l-.31.13a10.74,10.74,0,0,0,.59-3.77,7.46,7.46,0,0,0-.31-1.87,5.63,5.63,0,0,0-.34-.89,1.66,1.66,0,0,0-.57-.66,10.68,10.68,0,0,0-3.49-1.57,8.45,8.45,0,0,0-1-.21,1.72,1.72,0,0,0-.9,0A5.6,5.6,0,0,0,95.82,83.15Zm0,0a5.47,5.47,0,0,1,.68-1.87,1.72,1.72,0,0,1,1-.15,6.72,6.72,0,0,1,1,.16,10.8,10.8,0,0,1,3.69,1.5,2.22,2.22,0,0,1,.71.81,6.37,6.37,0,0,1,.38.94,8,8,0,0,1,.35,2,10.12,10.12,0,0,1-.64,4l-.08.23-.23-.11a9.25,9.25,0,0,1-2.14-1.47,17.2,17.2,0,0,1-1.77-1.85A29.82,29.82,0,0,1,95.82,83.15Z"/><path class="cls-7" d="M96.67,84.42a4,4,0,0,0,1.6-1.58,3.34,3.34,0,0,0,.25-1.4c-1-.26-1.89-.32-2.06,0a6.55,6.55,0,0,0-.68,1.75S96.11,83.67,96.67,84.42Z"/><path class="cls-4" d="M97.47,81.6a2.23,2.23,0,1,0-1.83,2.57h0A2.24,2.24,0,0,0,97.47,81.6Z"/><path class="cls-1" d="M97.47,81.6a2.09,2.09,0,1,0-.4,1.64A2.14,2.14,0,0,0,97.47,81.6Zm0,0a2.35,2.35,0,0,1-1.91,2.72,2.31,2.31,0,0,1-2.7-1.92,2.35,2.35,0,1,1,4.64-.8h0Z"/><path class="cls-1" d="M94.55,89.9a3.37,3.37,0,0,1,1.79,2.21,4.83,4.83,0,0,1,.22,1.46,5.63,5.63,0,0,1-.13,1.48,2.34,2.34,0,0,1-.33.76,1.1,1.1,0,0,1-.85.49,1,1,0,0,1-.88-.45,1.73,1.73,0,0,1-.27-.79,3.83,3.83,0,0,1,.17-1.47A2.52,2.52,0,0,1,95,92.36a2.87,2.87,0,0,0-.4,1.3A4.11,4.11,0,0,0,94.67,95c.2.94.88.79,1-.1a7.16,7.16,0,0,0,0-2.61,5,5,0,0,0-.4-1.26A3,3,0,0,0,94.55,89.9Z"/><path class="cls-2" d="M119.64,43.92c28.37,20.65,53.07,49.53,50.88,58.83-2.31,9.83-21.53,21.08-38.62,23.58-3.5.51-14.74-25-11.16-26.27,2.78-1,15.45-4.78,17-6.55,1-1.23-19.14-28.7-25.78-43.11C105,35.32,112.05,38.42,119.64,43.92Z"/><path class="cls-2" d="M128,99.17s-10.68,1.23-17.63,2.37c-3.88.64-10.43,2.32-13.07,4.09-3.94,2.65-18.73,16.24-15.51,19.9,2.91,3.31,7.15-2.07,7.15-2.07s-5.19,5.44-1.29,7.84,8.78-5.12,8.78-5.12-5.91,5.39-1.5,7.55c3.82,1.88,10.34-6.2,10.34-6.2s-6.82,5-3.09,7.29c4.12,2.54,15.41-8.34,15.41-8.34,9.18.89,14.81.18,21.23-1.73C140,124.42,128,99.17,128,99.17Z"/><path class="cls-1" d="M94.82,128l1.24-1.71A30.26,30.26,0,0,1,98.57,123c.89-1,1.83-2,2.8-2.87s2.15-1.85,3.14-2.85a.08.08,0,0,1,.11,0,.07.07,0,0,1,0,.11s0,0,0,0a37.42,37.42,0,0,0-2.81,3.1c-.9,1-1.78,2.08-2.67,3.12s-1.79,2-2.68,3c-.44.49-.87,1-1.29,1.52a11.36,11.36,0,0,1-1.23,1.45.07.07,0,0,1-.09,0,0,0,0,0,1,0-.05A8.05,8.05,0,0,1,94.82,128Z"/><path class="cls-1" d="M87.82,124.62a54.27,54.27,0,0,1,4.53-6.14,37.27,37.27,0,0,1,5.57-5.23.08.08,0,0,1,.11,0,.11.11,0,0,1,0,.08c-1.68,1.93-3.38,3.83-5.08,5.74-.84.93-4.48,5.28-4.92,5.69C87.93,124.88,87.82,124.73,87.82,124.62Z"/><path class="cls-1" d="M101.25,131.34a53.78,53.78,0,0,1,4.37-5.7,50.61,50.61,0,0,1,5.67-4.65c.08,0,.18.05.11.12-1.77,1.68-3.56,3.34-5.24,5.11-.82.86-3.9,4.49-4.75,5.24C101.33,131.53,101.21,131.42,101.25,131.34Z"/><path class="cls-4" d="M151.23,69.42,130.08,83.59s-16.26-24.28-20.51-35.84.51-11.66,11.84-3.41S151.23,69.42,151.23,69.42Z"/><path class="cls-1" d="M146.33,66.42a173.58,173.58,0,0,1-17.6,12.27c-.08,0-.15-.07-.08-.12,1.61-1,10.22-7.55,17.59-12.28C146.33,66.25,146.4,66.42,146.33,66.42Z"/><path class="cls-1" d="M131.43,82.63a12.19,12.19,0,0,0-1.28.7c-2.44-4.06-2-3.13-4.46-7.16l-3.64-5.94c-1.25-2.06-2.4-4.22-3.77-6.21,0-.06-.12,0-.1.06.86,2,2,3.87,3,5.76-.23-.29-.44-.59-.68-.86-.53-.62-1.06-1.24-1.55-1.9-.07-.1-.24,0-.17.1.47.63.88,1.28,1.3,1.94s.86,1.3,1.32,1.93.93,1.19,1.41,1.76L123,73c.67,1.18,1.32,2.37,2,3.54a58.47,58.47,0,0,0,5,7.23,12.2,12.2,0,0,0,1.53-1C131.56,82.7,131.49,82.62,131.43,82.63Z"/><path class="cls-1" d="M134.42,95.31c-2.25.89-4.5,1.75-6.76,2.6s-4.54,1.68-6.84,2.51h0c-1.94.21-3.87.49-5.81.74s-3.87.56-5.79.9-3.84.69-5.74,1.16a19.68,19.68,0,0,0-5.46,2,11,11,0,0,1,2.57-1.43,27.05,27.05,0,0,1,2.78-1q2.84-.81,5.73-1.39c1.93-.39,3.87-.69,5.81-1s3.89-.5,5.84-.7h-.07q3.42-1.17,6.87-2.27T134.42,95.31Z"/><path class="cls-2" d="M109.64,41c-.32,1.51-4.14,8.28-8.77,8-2.37-.16-2.15-8.5-2.15-8.5l-.1-.62-1.36-8.63,11.9-6.54S109.73,40.54,109.64,41Z"/><path class="cls-1" d="M109.37,30.58a17.6,17.6,0,0,1-10.75,9.25L97.25,31.2l11.92-6.55S109.27,27.36,109.37,30.58Z"/><path class="cls-2" d="M84.5,21.11C85.58,36.42,94.87,37.5,98.17,37.27c3-.22,13.17-1.33,13.68-16.66S104.9.93,98,1.06,83.43,5.81,84.5,21.11Z"/><path class="cls-1" d="M87.89,19.14c.35-.1.65-.25,1-.38a1.7,1.7,0,0,0,.93-.58.55.55,0,0,0-.1-.66,1.37,1.37,0,0,0-1.37-.1,2,2,0,0,0-1.12.89.58.58,0,0,0,.24.78A.56.56,0,0,0,87.89,19.14Z"/><path class="cls-1" d="M97.73,17.64a7.45,7.45,0,0,1-1.06-.05,1.75,1.75,0,0,1-1.07-.26.55.55,0,0,1-.11-.66,1.35,1.35,0,0,1,1.27-.52,2,2,0,0,1,1.34.49.58.58,0,0,1,0,.82A.57.57,0,0,1,97.73,17.64Z"/><path class="cls-1" d="M96.33,21.79c0-.05.09,0,.09.08.11,1,.41,2.21,1.4,2.42v.06C96.65,24.35,96.27,22.79,96.33,21.79Z"/><path class="cls-1" d="M97.1,20.58c1.65-.36,2.24,3,.72,3.29S95.72,20.88,97.1,20.58Z"/><path class="cls-1" d="M97.82,20.64c.32.13.66.41,1,.38s.65-.43.86-.81h.06a1.21,1.21,0,0,1-.67,1.54c-.6.2-1.15-.28-1.42-.89C97.59,20.77,97.66,20.58,97.82,20.64Z"/><path class="cls-1" d="M90.49,22.6s-.07.06-.06.1c.22,1,.3,2.23-.57,2.75v.05C91,25.13,90.82,23.53,90.49,22.6Z"/><path class="cls-1" d="M89.37,21.69c-1.67.18-1.19,3.52.36,3.36S90.82,21.55,89.37,21.69Z"/><path class="cls-1" d="M88.71,22c-.24.22-.45.58-.77.64s-.68-.24-1-.55h0c.07.64.38,1.27,1,1.31s.91-.58,1-1.23C88.92,22.09,88.82,21.93,88.71,22Z"/><path class="cls-1" d="M98.43,29.6c-.12.33-.2.74-.53.93a2.55,2.55,0,0,1-1.12.25s0,0,0,.07a1.38,1.38,0,0,0,1.44-.06,1.13,1.13,0,0,0,.34-1.19A.07.07,0,0,0,98.43,29.6Z"/><path class="cls-1" d="M93,27s.12,1.57.27,2.29a3.94,3.94,0,0,0,3.53-2c0-.07-.08-.13-.13-.07a5.33,5.33,0,0,1-2.94,1.56c-.09-.19-.1-2.7-.22-2.68a6.32,6.32,0,0,0-1.56.72c-.33-3.27-.14-6.56-.52-9.81a.1.1,0,0,0-.1-.1.09.09,0,0,0-.1.1,52,52,0,0,0,.12,10.58C91.38,28,92.74,27.18,93,27Z"/><path class="cls-1" d="M94.24,29a3.74,3.74,0,0,0,1.75.8,1.66,1.66,0,0,0,1-.17c.68-.37.55-1,.28-1.58a4.39,4.39,0,0,0-.54-.81A4.92,4.92,0,0,1,94.24,29Z"/><path class="cls-8" d="M96,29.8a1.66,1.66,0,0,0,1-.17c.68-.37.55-1,.28-1.58A1.75,1.75,0,0,0,96,29.8Z"/><path class="cls-1" d="M110.93,21.63c-2.8.77-4.47-5.65-4.47-5.65S94,15.69,91.56,6a16.87,16.87,0,0,1-7.1,10.37S83.31,5.46,91.59,2.11c0,0,10.09-5.42,17.31,2.16S112.82,21.11,110.93,21.63Z"/><path class="cls-2" d="M109.5,22s2.56-5.25,4.89-4.41.93,8.09-1.44,9.43a2.6,2.6,0,0,1-3.6-.76.22.22,0,0,1,0-.08Z"/><path class="cls-1" d="M113.94,19.67c-1.65,1-2.32,2.78-2.71,4.59a1.45,1.45,0,0,1,1.88-.81l.18.08a.06.06,0,0,1,0,.08l0,0a1.58,1.58,0,0,0-1.65.82A7.26,7.26,0,0,0,111,26c-.06.17-.36.13-.32-.06h0c-.41-2.29.85-5.72,3.23-6.33Z"/><path class="cls-3" d="M112.57,26.42a.65.65,0,1,1-.58-.72A.65.65,0,0,1,112.57,26.42Z"/><path class="cls-1" d="M91.42,5.24a10.72,10.72,0,0,0,1.19,4.43,11.31,11.31,0,0,0,2.87,3.65,7.17,7.17,0,0,0,.94.7l.48.34c.16.1.34.19.51.28l1,.53,1.09.4.55.19.56.13,1.13.25c.76.1,1.53.16,2.29.21-.74-.21-1.49-.33-2.22-.54l-1.07-.34-.54-.17-.51-.23-1-.45c-.32-.14-.65-.37-1-.55l-.48-.27-.45-.33a8.26,8.26,0,0,1-.88-.68A12.51,12.51,0,0,1,93,9.41a12.88,12.88,0,0,1-1-2A11.66,11.66,0,0,1,91.42,5.24Z"/><path class="cls-2" d="M88.39,120.9c-3,1.71-6.56-5.92-6.56-5.92a6.28,6.28,0,0,1-1.7,3.93c-1.86,1.8-5.5-.33-5.5-.33a7.87,7.87,0,0,1-2.45,3.86c-2,1.55-5.94-.08-5.94-.08a6.81,6.81,0,0,1-4.29,2c-4.37.2-8.16-5.29-10.61-8.75S45.2,100,44.26,97.78l22.1-15.9s15.39,12.41,17.69,16.9C86,102.59,92.89,118.28,88.39,120.9Z"/><path class="cls-1" d="M81.88,114.87c-1.1-4.5-3.27-8.74-5.41-12.81a.08.08,0,1,0-.14.08c2.17,4,3.33,8.71,5.34,12.81a.11.11,0,0,0,.14.07A.12.12,0,0,0,81.88,114.87Z"/><path class="cls-1" d="M74.87,118.3a11.88,11.88,0,0,0-1.43-2.82c-.57-1-1.16-1.92-1.76-2.87q-1.83-2.83-3.76-5.58c-.06-.08-.2,0-.14.08,1.2,1.88,2.37,3.79,3.49,5.73.56,1,1.11,1.94,1.66,2.92a13.53,13.53,0,0,0,1.66,2.69.17.17,0,0,0,.24,0A.18.18,0,0,0,74.87,118.3Z"/><path class="cls-1" d="M66.19,122.28a8.7,8.7,0,0,0-1.41-2.48c-.57-.85-1.14-1.7-1.69-2.56-1.12-1.71-2.24-3.43-3.29-5.18,0-.08-.19,0-.14.08,1.06,1.78,2.1,3.58,3.18,5.36.53.87,1.07,1.74,1.61,2.61a8.06,8.06,0,0,0,1.66,2.23S66.2,122.32,66.19,122.28Z"/><rect class="cls-9" x="50.74" y="128.68" width="79.5" height="3.57"/><polygon class="cls-10" points="112.64 128.68 113.29 132.24 50.74 132.24 50.74 128.68 112.64 128.68"/><polygon class="cls-9" points="109.83 132.24 42.33 132.24 36.71 86.39 104.21 86.39 109.83 132.24"/><path class="cls-3" d="M77.38,109.32a4,4,0,0,1-3.89,4.11h-.11a4.2,4.2,0,0,1-4.18-4.11,4,4,0,0,1,3.89-4.11h.11A4.2,4.2,0,0,1,77.38,109.32Z"/></g></svg>